G75*
G70*
%OFA0B0*%
%FSLAX24Y24*%
%IPPOS*%
%LPD*%
%AMOC8*
5,1,8,0,0,1.08239X$1,22.5*
%
%ADD10C,0.0000*%
%ADD11C,0.0050*%
%ADD12C,0.0020*%
%ADD13C,0.0040*%
%ADD14C,0.0100*%
%ADD15R,0.0118X0.0827*%
%ADD16C,0.0060*%
%ADD17R,0.0200X0.0050*%
%ADD18C,0.0080*%
%ADD19R,0.0492X0.2441*%
D10*
X000219Y000100D02*
X000219Y027720D01*
X052567Y027720D01*
X052567Y000100D01*
X000219Y000100D01*
X001872Y002462D02*
X001874Y002515D01*
X001880Y002568D01*
X001890Y002620D01*
X001903Y002671D01*
X001921Y002721D01*
X001942Y002770D01*
X001967Y002817D01*
X001995Y002861D01*
X002027Y002904D01*
X002061Y002944D01*
X002099Y002982D01*
X002139Y003016D01*
X002182Y003048D01*
X002227Y003076D01*
X002273Y003101D01*
X002322Y003122D01*
X002372Y003140D01*
X002423Y003153D01*
X002475Y003163D01*
X002528Y003169D01*
X002581Y003171D01*
X002634Y003169D01*
X002687Y003163D01*
X002739Y003153D01*
X002790Y003140D01*
X002840Y003122D01*
X002889Y003101D01*
X002936Y003076D01*
X002980Y003048D01*
X003023Y003016D01*
X003063Y002982D01*
X003101Y002944D01*
X003135Y002904D01*
X003167Y002861D01*
X003195Y002816D01*
X003220Y002770D01*
X003241Y002721D01*
X003259Y002671D01*
X003272Y002620D01*
X003282Y002568D01*
X003288Y002515D01*
X003290Y002462D01*
X003288Y002409D01*
X003282Y002356D01*
X003272Y002304D01*
X003259Y002253D01*
X003241Y002203D01*
X003220Y002154D01*
X003195Y002107D01*
X003167Y002063D01*
X003135Y002020D01*
X003101Y001980D01*
X003063Y001942D01*
X003023Y001908D01*
X002980Y001876D01*
X002935Y001848D01*
X002889Y001823D01*
X002840Y001802D01*
X002790Y001784D01*
X002739Y001771D01*
X002687Y001761D01*
X002634Y001755D01*
X002581Y001753D01*
X002528Y001755D01*
X002475Y001761D01*
X002423Y001771D01*
X002372Y001784D01*
X002322Y001802D01*
X002273Y001823D01*
X002226Y001848D01*
X002182Y001876D01*
X002139Y001908D01*
X002099Y001942D01*
X002061Y001980D01*
X002027Y002020D01*
X001995Y002063D01*
X001967Y002108D01*
X001942Y002154D01*
X001921Y002203D01*
X001903Y002253D01*
X001890Y002304D01*
X001880Y002356D01*
X001874Y002409D01*
X001872Y002462D01*
X001872Y025297D02*
X001874Y025350D01*
X001880Y025403D01*
X001890Y025455D01*
X001903Y025506D01*
X001921Y025556D01*
X001942Y025605D01*
X001967Y025652D01*
X001995Y025696D01*
X002027Y025739D01*
X002061Y025779D01*
X002099Y025817D01*
X002139Y025851D01*
X002182Y025883D01*
X002227Y025911D01*
X002273Y025936D01*
X002322Y025957D01*
X002372Y025975D01*
X002423Y025988D01*
X002475Y025998D01*
X002528Y026004D01*
X002581Y026006D01*
X002634Y026004D01*
X002687Y025998D01*
X002739Y025988D01*
X002790Y025975D01*
X002840Y025957D01*
X002889Y025936D01*
X002936Y025911D01*
X002980Y025883D01*
X003023Y025851D01*
X003063Y025817D01*
X003101Y025779D01*
X003135Y025739D01*
X003167Y025696D01*
X003195Y025651D01*
X003220Y025605D01*
X003241Y025556D01*
X003259Y025506D01*
X003272Y025455D01*
X003282Y025403D01*
X003288Y025350D01*
X003290Y025297D01*
X003288Y025244D01*
X003282Y025191D01*
X003272Y025139D01*
X003259Y025088D01*
X003241Y025038D01*
X003220Y024989D01*
X003195Y024942D01*
X003167Y024898D01*
X003135Y024855D01*
X003101Y024815D01*
X003063Y024777D01*
X003023Y024743D01*
X002980Y024711D01*
X002935Y024683D01*
X002889Y024658D01*
X002840Y024637D01*
X002790Y024619D01*
X002739Y024606D01*
X002687Y024596D01*
X002634Y024590D01*
X002581Y024588D01*
X002528Y024590D01*
X002475Y024596D01*
X002423Y024606D01*
X002372Y024619D01*
X002322Y024637D01*
X002273Y024658D01*
X002226Y024683D01*
X002182Y024711D01*
X002139Y024743D01*
X002099Y024777D01*
X002061Y024815D01*
X002027Y024855D01*
X001995Y024898D01*
X001967Y024943D01*
X001942Y024989D01*
X001921Y025038D01*
X001903Y025088D01*
X001890Y025139D01*
X001880Y025191D01*
X001874Y025244D01*
X001872Y025297D01*
X049510Y025297D02*
X049512Y025350D01*
X049518Y025403D01*
X049528Y025455D01*
X049541Y025506D01*
X049559Y025556D01*
X049580Y025605D01*
X049605Y025652D01*
X049633Y025696D01*
X049665Y025739D01*
X049699Y025779D01*
X049737Y025817D01*
X049777Y025851D01*
X049820Y025883D01*
X049865Y025911D01*
X049911Y025936D01*
X049960Y025957D01*
X050010Y025975D01*
X050061Y025988D01*
X050113Y025998D01*
X050166Y026004D01*
X050219Y026006D01*
X050272Y026004D01*
X050325Y025998D01*
X050377Y025988D01*
X050428Y025975D01*
X050478Y025957D01*
X050527Y025936D01*
X050574Y025911D01*
X050618Y025883D01*
X050661Y025851D01*
X050701Y025817D01*
X050739Y025779D01*
X050773Y025739D01*
X050805Y025696D01*
X050833Y025651D01*
X050858Y025605D01*
X050879Y025556D01*
X050897Y025506D01*
X050910Y025455D01*
X050920Y025403D01*
X050926Y025350D01*
X050928Y025297D01*
X050926Y025244D01*
X050920Y025191D01*
X050910Y025139D01*
X050897Y025088D01*
X050879Y025038D01*
X050858Y024989D01*
X050833Y024942D01*
X050805Y024898D01*
X050773Y024855D01*
X050739Y024815D01*
X050701Y024777D01*
X050661Y024743D01*
X050618Y024711D01*
X050573Y024683D01*
X050527Y024658D01*
X050478Y024637D01*
X050428Y024619D01*
X050377Y024606D01*
X050325Y024596D01*
X050272Y024590D01*
X050219Y024588D01*
X050166Y024590D01*
X050113Y024596D01*
X050061Y024606D01*
X050010Y024619D01*
X049960Y024637D01*
X049911Y024658D01*
X049864Y024683D01*
X049820Y024711D01*
X049777Y024743D01*
X049737Y024777D01*
X049699Y024815D01*
X049665Y024855D01*
X049633Y024898D01*
X049605Y024943D01*
X049580Y024989D01*
X049559Y025038D01*
X049541Y025088D01*
X049528Y025139D01*
X049518Y025191D01*
X049512Y025244D01*
X049510Y025297D01*
X049510Y002462D02*
X049512Y002515D01*
X049518Y002568D01*
X049528Y002620D01*
X049541Y002671D01*
X049559Y002721D01*
X049580Y002770D01*
X049605Y002817D01*
X049633Y002861D01*
X049665Y002904D01*
X049699Y002944D01*
X049737Y002982D01*
X049777Y003016D01*
X049820Y003048D01*
X049865Y003076D01*
X049911Y003101D01*
X049960Y003122D01*
X050010Y003140D01*
X050061Y003153D01*
X050113Y003163D01*
X050166Y003169D01*
X050219Y003171D01*
X050272Y003169D01*
X050325Y003163D01*
X050377Y003153D01*
X050428Y003140D01*
X050478Y003122D01*
X050527Y003101D01*
X050574Y003076D01*
X050618Y003048D01*
X050661Y003016D01*
X050701Y002982D01*
X050739Y002944D01*
X050773Y002904D01*
X050805Y002861D01*
X050833Y002816D01*
X050858Y002770D01*
X050879Y002721D01*
X050897Y002671D01*
X050910Y002620D01*
X050920Y002568D01*
X050926Y002515D01*
X050928Y002462D01*
X050926Y002409D01*
X050920Y002356D01*
X050910Y002304D01*
X050897Y002253D01*
X050879Y002203D01*
X050858Y002154D01*
X050833Y002107D01*
X050805Y002063D01*
X050773Y002020D01*
X050739Y001980D01*
X050701Y001942D01*
X050661Y001908D01*
X050618Y001876D01*
X050573Y001848D01*
X050527Y001823D01*
X050478Y001802D01*
X050428Y001784D01*
X050377Y001771D01*
X050325Y001761D01*
X050272Y001755D01*
X050219Y001753D01*
X050166Y001755D01*
X050113Y001761D01*
X050061Y001771D01*
X050010Y001784D01*
X049960Y001802D01*
X049911Y001823D01*
X049864Y001848D01*
X049820Y001876D01*
X049777Y001908D01*
X049737Y001942D01*
X049699Y001980D01*
X049665Y002020D01*
X049633Y002063D01*
X049605Y002108D01*
X049580Y002154D01*
X049559Y002203D01*
X049541Y002253D01*
X049528Y002304D01*
X049518Y002356D01*
X049512Y002409D01*
X049510Y002462D01*
D11*
X041929Y006420D02*
X040509Y006420D01*
X040509Y008280D01*
X041929Y008280D01*
X041929Y006420D01*
X041494Y006533D02*
X041494Y006684D01*
X041419Y006759D01*
X041119Y006759D01*
X041044Y006684D01*
X041044Y006533D01*
X041119Y006458D01*
X041419Y006458D01*
X041494Y006533D01*
X041194Y006609D02*
X041044Y006759D01*
X041044Y006919D02*
X041044Y007219D01*
X041044Y007069D02*
X041494Y007069D01*
X041344Y006919D01*
X041419Y007379D02*
X041494Y007454D01*
X041494Y007604D01*
X041419Y007679D01*
X041119Y007379D01*
X041044Y007454D01*
X041044Y007604D01*
X041119Y007679D01*
X041419Y007679D01*
X041344Y007840D02*
X041494Y007990D01*
X041044Y007990D01*
X041044Y007840D02*
X041044Y008140D01*
X039858Y008683D02*
X039633Y008683D01*
X039558Y008759D01*
X039558Y009059D01*
X039633Y009134D01*
X039858Y009134D01*
X039858Y008683D01*
X039397Y008683D02*
X039097Y008683D01*
X039247Y008683D02*
X039247Y009134D01*
X039397Y008984D01*
X038937Y009059D02*
X038937Y008759D01*
X038637Y009059D01*
X038637Y008759D01*
X038712Y008683D01*
X038862Y008683D01*
X038937Y008759D01*
X038937Y009059D02*
X038862Y009134D01*
X038712Y009134D01*
X038637Y009059D01*
X038477Y009059D02*
X038402Y009134D01*
X038252Y009134D01*
X038176Y009059D01*
X038176Y008984D01*
X038477Y008683D01*
X038176Y008683D01*
X040509Y009920D02*
X041929Y009920D01*
X041929Y011780D01*
X040509Y011780D01*
X040509Y009920D01*
X041044Y009908D02*
X041044Y010059D01*
X041119Y010134D01*
X041419Y010134D01*
X041494Y010059D01*
X041494Y009908D01*
X041419Y009833D01*
X041119Y009833D01*
X041044Y009908D01*
X041194Y009984D02*
X041044Y010134D01*
X041044Y010294D02*
X041044Y010594D01*
X041044Y010444D02*
X041494Y010444D01*
X041344Y010294D01*
X041419Y010754D02*
X041494Y010829D01*
X041494Y010979D01*
X041419Y011054D01*
X041119Y010754D01*
X041044Y010829D01*
X041044Y010979D01*
X041119Y011054D01*
X041419Y011054D01*
X041419Y011215D02*
X041494Y011290D01*
X041494Y011440D01*
X041419Y011515D01*
X041344Y011515D01*
X041044Y011215D01*
X041044Y011515D01*
X039858Y012183D02*
X039633Y012183D01*
X039558Y012259D01*
X039558Y012559D01*
X039633Y012634D01*
X039858Y012634D01*
X039858Y012183D01*
X039397Y012183D02*
X039097Y012183D01*
X039247Y012183D02*
X039247Y012634D01*
X039397Y012484D01*
X038937Y012559D02*
X038862Y012634D01*
X038712Y012634D01*
X038637Y012559D01*
X038937Y012259D01*
X038862Y012183D01*
X038712Y012183D01*
X038637Y012259D01*
X038637Y012559D01*
X038477Y012559D02*
X038402Y012634D01*
X038252Y012634D01*
X038176Y012559D01*
X038176Y012484D01*
X038252Y012409D01*
X038176Y012334D01*
X038176Y012259D01*
X038252Y012183D01*
X038402Y012183D01*
X038477Y012259D01*
X038327Y012409D02*
X038252Y012409D01*
X038937Y012259D02*
X038937Y012559D01*
X040509Y013420D02*
X041929Y013420D01*
X041929Y015280D01*
X040509Y015280D01*
X040509Y013420D01*
X041044Y013408D02*
X041119Y013333D01*
X041419Y013333D01*
X041494Y013408D01*
X041494Y013559D01*
X041419Y013634D01*
X041119Y013634D01*
X041044Y013559D01*
X041044Y013408D01*
X041194Y013484D02*
X041044Y013634D01*
X041044Y013794D02*
X041044Y014094D01*
X041044Y013944D02*
X041494Y013944D01*
X041344Y013794D01*
X041419Y014254D02*
X041494Y014329D01*
X041494Y014479D01*
X041419Y014554D01*
X041119Y014254D01*
X041044Y014329D01*
X041044Y014479D01*
X041119Y014554D01*
X041419Y014554D01*
X041419Y014715D02*
X041494Y014790D01*
X041494Y014940D01*
X041419Y015015D01*
X041344Y015015D01*
X041269Y014940D01*
X041194Y015015D01*
X041119Y015015D01*
X041044Y014940D01*
X041044Y014790D01*
X041119Y014715D01*
X041269Y014865D02*
X041269Y014940D01*
X041119Y014254D02*
X041419Y014254D01*
X039858Y015683D02*
X039633Y015683D01*
X039558Y015759D01*
X039558Y016059D01*
X039633Y016134D01*
X039858Y016134D01*
X039858Y015683D01*
X039397Y015683D02*
X039097Y015683D01*
X039247Y015683D02*
X039247Y016134D01*
X039397Y015984D01*
X038937Y016059D02*
X038937Y015759D01*
X038637Y016059D01*
X038637Y015759D01*
X038712Y015683D01*
X038862Y015683D01*
X038937Y015759D01*
X038937Y016059D02*
X038862Y016134D01*
X038712Y016134D01*
X038637Y016059D01*
X038477Y015909D02*
X038176Y015909D01*
X038252Y016134D02*
X038477Y015909D01*
X038252Y015683D02*
X038252Y016134D01*
X040509Y016920D02*
X041929Y016920D01*
X041929Y018780D01*
X040509Y018780D01*
X040509Y016920D01*
X041044Y016908D02*
X041044Y017059D01*
X041119Y017134D01*
X041419Y017134D01*
X041494Y017059D01*
X041494Y016908D01*
X041419Y016833D01*
X041119Y016833D01*
X041044Y016908D01*
X041194Y016984D02*
X041044Y017134D01*
X041044Y017294D02*
X041044Y017594D01*
X041044Y017444D02*
X041494Y017444D01*
X041344Y017294D01*
X041419Y017754D02*
X041494Y017829D01*
X041494Y017979D01*
X041419Y018054D01*
X041119Y017754D01*
X041044Y017829D01*
X041044Y017979D01*
X041119Y018054D01*
X041419Y018054D01*
X041269Y018215D02*
X041269Y018515D01*
X041494Y018440D02*
X041269Y018215D01*
X041044Y018440D02*
X041494Y018440D01*
X041419Y017754D02*
X041119Y017754D01*
X039858Y019183D02*
X039633Y019183D01*
X039558Y019259D01*
X039558Y019559D01*
X039633Y019634D01*
X039858Y019634D01*
X039858Y019183D01*
X039397Y019183D02*
X039097Y019183D01*
X039247Y019183D02*
X039247Y019634D01*
X039397Y019484D01*
X038937Y019559D02*
X038937Y019259D01*
X038637Y019559D01*
X038637Y019259D01*
X038712Y019183D01*
X038862Y019183D01*
X038937Y019259D01*
X038937Y019559D02*
X038862Y019634D01*
X038712Y019634D01*
X038637Y019559D01*
X038477Y019634D02*
X038477Y019409D01*
X038327Y019484D01*
X038252Y019484D01*
X038176Y019409D01*
X038176Y019259D01*
X038252Y019183D01*
X038402Y019183D01*
X038477Y019259D01*
X038477Y019634D02*
X038176Y019634D01*
X040509Y020420D02*
X041929Y020420D01*
X041929Y022280D01*
X040509Y022280D01*
X040509Y020420D01*
X041044Y020408D02*
X041119Y020333D01*
X041419Y020333D01*
X041494Y020408D01*
X041494Y020559D01*
X041419Y020634D01*
X041119Y020634D01*
X041044Y020559D01*
X041044Y020408D01*
X041194Y020484D02*
X041044Y020634D01*
X041044Y020794D02*
X041044Y021094D01*
X041044Y020944D02*
X041494Y020944D01*
X041344Y020794D01*
X041419Y021254D02*
X041494Y021329D01*
X041494Y021479D01*
X041419Y021554D01*
X041119Y021254D01*
X041044Y021329D01*
X041044Y021479D01*
X041119Y021554D01*
X041419Y021554D01*
X041494Y021715D02*
X041269Y021715D01*
X041344Y021865D01*
X041344Y021940D01*
X041269Y022015D01*
X041119Y022015D01*
X041044Y021940D01*
X041044Y021790D01*
X041119Y021715D01*
X041494Y021715D02*
X041494Y022015D01*
X041419Y021254D02*
X041119Y021254D01*
X045301Y022884D02*
X045377Y022808D01*
X045527Y022808D01*
X045602Y022884D01*
X045301Y023184D01*
X045301Y022884D01*
X045301Y023184D02*
X045377Y023259D01*
X045527Y023259D01*
X045602Y023184D01*
X045602Y022884D01*
X045762Y022808D02*
X046062Y022808D01*
X045912Y022808D02*
X045912Y023259D01*
X046062Y023109D01*
X046372Y023259D02*
X046372Y022808D01*
X046522Y022808D02*
X046222Y022808D01*
X046683Y022884D02*
X046683Y023184D01*
X046758Y023259D01*
X046983Y023259D01*
X046983Y022808D01*
X046758Y022808D01*
X046683Y022884D01*
X046522Y023109D02*
X046372Y023259D01*
X046402Y019259D02*
X046252Y019259D01*
X046176Y019184D01*
X046176Y018884D01*
X046252Y018808D01*
X046402Y018808D01*
X046477Y018884D01*
X046637Y018884D02*
X046712Y018808D01*
X046862Y018808D01*
X046937Y018884D01*
X046637Y019184D01*
X046637Y018884D01*
X046477Y019109D02*
X046402Y019034D01*
X046176Y019034D01*
X046477Y019109D02*
X046477Y019184D01*
X046402Y019259D01*
X046637Y019184D02*
X046712Y019259D01*
X046862Y019259D01*
X046937Y019184D01*
X046937Y018884D01*
X047097Y018808D02*
X047397Y018808D01*
X047247Y018808D02*
X047247Y019259D01*
X047397Y019109D01*
X047558Y019184D02*
X047558Y018884D01*
X047633Y018808D01*
X047858Y018808D01*
X047858Y019259D01*
X047633Y019259D01*
X047558Y019184D01*
X047233Y015259D02*
X047008Y015259D01*
X046933Y015184D01*
X046933Y014884D01*
X047008Y014808D01*
X047233Y014808D01*
X047233Y015259D01*
X046772Y015109D02*
X046622Y015259D01*
X046622Y014808D01*
X046772Y014808D02*
X046472Y014808D01*
X046312Y014884D02*
X046012Y015184D01*
X046012Y014884D01*
X046087Y014808D01*
X046237Y014808D01*
X046312Y014884D01*
X046312Y015184D01*
X046237Y015259D01*
X046087Y015259D01*
X046012Y015184D01*
X045852Y015184D02*
X045852Y015109D01*
X045777Y015034D01*
X045627Y015034D01*
X045551Y014959D01*
X045551Y014884D01*
X045627Y014808D01*
X045777Y014808D01*
X045852Y014884D01*
X045852Y014959D01*
X045777Y015034D01*
X045627Y015034D02*
X045551Y015109D01*
X045551Y015184D01*
X045627Y015259D01*
X045777Y015259D01*
X045852Y015184D01*
X046051Y011884D02*
X046051Y011809D01*
X046352Y011509D01*
X046352Y011433D01*
X046512Y011509D02*
X046587Y011433D01*
X046737Y011433D01*
X046812Y011509D01*
X046512Y011809D01*
X046512Y011509D01*
X046512Y011809D02*
X046587Y011884D01*
X046737Y011884D01*
X046812Y011809D01*
X046812Y011509D01*
X046972Y011433D02*
X047272Y011433D01*
X047122Y011433D02*
X047122Y011884D01*
X047272Y011734D01*
X047433Y011809D02*
X047433Y011509D01*
X047508Y011433D01*
X047733Y011433D01*
X047733Y011884D01*
X047508Y011884D01*
X047433Y011809D01*
X046352Y011884D02*
X046051Y011884D01*
X041419Y010754D02*
X041119Y010754D01*
X045926Y008259D02*
X046077Y008184D01*
X046227Y008034D01*
X046002Y008034D01*
X045926Y007959D01*
X045926Y007884D01*
X046002Y007808D01*
X046152Y007808D01*
X046227Y007884D01*
X046227Y008034D01*
X046387Y008184D02*
X046687Y007884D01*
X046612Y007808D01*
X046462Y007808D01*
X046387Y007884D01*
X046387Y008184D01*
X046462Y008259D01*
X046612Y008259D01*
X046687Y008184D01*
X046687Y007884D01*
X046847Y007808D02*
X047147Y007808D01*
X046997Y007808D02*
X046997Y008259D01*
X047147Y008109D01*
X047308Y008184D02*
X047383Y008259D01*
X047608Y008259D01*
X047608Y007808D01*
X047383Y007808D01*
X047308Y007884D01*
X047308Y008184D01*
X041419Y007379D02*
X041119Y007379D01*
X039858Y005634D02*
X039633Y005634D01*
X039558Y005559D01*
X039558Y005259D01*
X039633Y005183D01*
X039858Y005183D01*
X039858Y005634D01*
X039397Y005484D02*
X039247Y005634D01*
X039247Y005183D01*
X039397Y005183D02*
X039097Y005183D01*
X038937Y005259D02*
X038637Y005559D01*
X038637Y005259D01*
X038712Y005183D01*
X038862Y005183D01*
X038937Y005259D01*
X038937Y005559D01*
X038862Y005634D01*
X038712Y005634D01*
X038637Y005559D01*
X038477Y005484D02*
X038327Y005634D01*
X038327Y005183D01*
X038477Y005183D02*
X038176Y005183D01*
X029592Y006350D02*
X029442Y006350D01*
X029517Y006350D02*
X029517Y006800D01*
X029592Y006800D02*
X029442Y006800D01*
X029285Y006725D02*
X029285Y006425D01*
X029210Y006350D01*
X029060Y006350D01*
X028985Y006425D01*
X028825Y006425D02*
X028750Y006350D01*
X028600Y006350D01*
X028524Y006425D01*
X028524Y006500D01*
X028600Y006575D01*
X028675Y006575D01*
X028600Y006575D02*
X028524Y006650D01*
X028524Y006725D01*
X028600Y006800D01*
X028750Y006800D01*
X028825Y006725D01*
X028985Y006725D02*
X029060Y006800D01*
X029210Y006800D01*
X029285Y006725D01*
X028364Y006725D02*
X028364Y006425D01*
X028064Y006725D01*
X028064Y006425D01*
X028139Y006350D01*
X028289Y006350D01*
X028364Y006425D01*
X028364Y006725D02*
X028289Y006800D01*
X028139Y006800D01*
X028064Y006725D01*
X027904Y006725D02*
X027829Y006800D01*
X027679Y006800D01*
X027604Y006725D01*
X027604Y006650D01*
X027679Y006575D01*
X027604Y006500D01*
X027604Y006425D01*
X027679Y006350D01*
X027829Y006350D01*
X027904Y006425D01*
X027754Y006575D02*
X027679Y006575D01*
X026869Y020325D02*
X026718Y020325D01*
X026793Y020325D02*
X026793Y020775D01*
X026718Y020775D02*
X026869Y020775D01*
X026562Y020700D02*
X026562Y020400D01*
X026487Y020325D01*
X026336Y020325D01*
X026261Y020400D01*
X026101Y020550D02*
X025801Y020550D01*
X025641Y020400D02*
X025341Y020700D01*
X025341Y020400D01*
X025416Y020325D01*
X025566Y020325D01*
X025641Y020400D01*
X025641Y020700D01*
X025566Y020775D01*
X025416Y020775D01*
X025341Y020700D01*
X025180Y020625D02*
X025030Y020775D01*
X025030Y020325D01*
X025180Y020325D02*
X024880Y020325D01*
X025876Y020325D02*
X025876Y020775D01*
X026101Y020550D01*
X026261Y020700D02*
X026336Y020775D01*
X026487Y020775D01*
X026562Y020700D01*
D12*
X027044Y020270D02*
X033144Y020270D01*
X040589Y020640D02*
X040591Y020663D01*
X040597Y020685D01*
X040606Y020707D01*
X040619Y020726D01*
X040634Y020743D01*
X040652Y020757D01*
X040673Y020768D01*
X040695Y020776D01*
X040717Y020780D01*
X040741Y020780D01*
X040763Y020776D01*
X040785Y020768D01*
X040806Y020757D01*
X040824Y020743D01*
X040839Y020726D01*
X040852Y020707D01*
X040861Y020685D01*
X040867Y020663D01*
X040869Y020640D01*
X040867Y020617D01*
X040861Y020595D01*
X040852Y020573D01*
X040839Y020554D01*
X040824Y020537D01*
X040806Y020523D01*
X040785Y020512D01*
X040763Y020504D01*
X040741Y020500D01*
X040717Y020500D01*
X040695Y020504D01*
X040673Y020512D01*
X040652Y020523D01*
X040634Y020537D01*
X040619Y020554D01*
X040606Y020573D01*
X040597Y020595D01*
X040591Y020617D01*
X040589Y020640D01*
X040589Y017140D02*
X040591Y017163D01*
X040597Y017185D01*
X040606Y017207D01*
X040619Y017226D01*
X040634Y017243D01*
X040652Y017257D01*
X040673Y017268D01*
X040695Y017276D01*
X040717Y017280D01*
X040741Y017280D01*
X040763Y017276D01*
X040785Y017268D01*
X040806Y017257D01*
X040824Y017243D01*
X040839Y017226D01*
X040852Y017207D01*
X040861Y017185D01*
X040867Y017163D01*
X040869Y017140D01*
X040867Y017117D01*
X040861Y017095D01*
X040852Y017073D01*
X040839Y017054D01*
X040824Y017037D01*
X040806Y017023D01*
X040785Y017012D01*
X040763Y017004D01*
X040741Y017000D01*
X040717Y017000D01*
X040695Y017004D01*
X040673Y017012D01*
X040652Y017023D01*
X040634Y017037D01*
X040619Y017054D01*
X040606Y017073D01*
X040597Y017095D01*
X040591Y017117D01*
X040589Y017140D01*
X040589Y013640D02*
X040591Y013663D01*
X040597Y013685D01*
X040606Y013707D01*
X040619Y013726D01*
X040634Y013743D01*
X040652Y013757D01*
X040673Y013768D01*
X040695Y013776D01*
X040717Y013780D01*
X040741Y013780D01*
X040763Y013776D01*
X040785Y013768D01*
X040806Y013757D01*
X040824Y013743D01*
X040839Y013726D01*
X040852Y013707D01*
X040861Y013685D01*
X040867Y013663D01*
X040869Y013640D01*
X040867Y013617D01*
X040861Y013595D01*
X040852Y013573D01*
X040839Y013554D01*
X040824Y013537D01*
X040806Y013523D01*
X040785Y013512D01*
X040763Y013504D01*
X040741Y013500D01*
X040717Y013500D01*
X040695Y013504D01*
X040673Y013512D01*
X040652Y013523D01*
X040634Y013537D01*
X040619Y013554D01*
X040606Y013573D01*
X040597Y013595D01*
X040591Y013617D01*
X040589Y013640D01*
X040589Y010140D02*
X040591Y010163D01*
X040597Y010185D01*
X040606Y010207D01*
X040619Y010226D01*
X040634Y010243D01*
X040652Y010257D01*
X040673Y010268D01*
X040695Y010276D01*
X040717Y010280D01*
X040741Y010280D01*
X040763Y010276D01*
X040785Y010268D01*
X040806Y010257D01*
X040824Y010243D01*
X040839Y010226D01*
X040852Y010207D01*
X040861Y010185D01*
X040867Y010163D01*
X040869Y010140D01*
X040867Y010117D01*
X040861Y010095D01*
X040852Y010073D01*
X040839Y010054D01*
X040824Y010037D01*
X040806Y010023D01*
X040785Y010012D01*
X040763Y010004D01*
X040741Y010000D01*
X040717Y010000D01*
X040695Y010004D01*
X040673Y010012D01*
X040652Y010023D01*
X040634Y010037D01*
X040619Y010054D01*
X040606Y010073D01*
X040597Y010095D01*
X040591Y010117D01*
X040589Y010140D01*
X040589Y006640D02*
X040591Y006663D01*
X040597Y006685D01*
X040606Y006707D01*
X040619Y006726D01*
X040634Y006743D01*
X040652Y006757D01*
X040673Y006768D01*
X040695Y006776D01*
X040717Y006780D01*
X040741Y006780D01*
X040763Y006776D01*
X040785Y006768D01*
X040806Y006757D01*
X040824Y006743D01*
X040839Y006726D01*
X040852Y006707D01*
X040861Y006685D01*
X040867Y006663D01*
X040869Y006640D01*
X040867Y006617D01*
X040861Y006595D01*
X040852Y006573D01*
X040839Y006554D01*
X040824Y006537D01*
X040806Y006523D01*
X040785Y006512D01*
X040763Y006504D01*
X040741Y006500D01*
X040717Y006500D01*
X040695Y006504D01*
X040673Y006512D01*
X040652Y006523D01*
X040634Y006537D01*
X040619Y006554D01*
X040606Y006573D01*
X040597Y006595D01*
X040591Y006617D01*
X040589Y006640D01*
X027469Y008855D02*
X025469Y008855D01*
X014844Y008730D02*
X012844Y008730D01*
D13*
X012838Y009495D02*
X012685Y009495D01*
X012608Y009572D01*
X012455Y009572D02*
X012378Y009495D01*
X012224Y009495D01*
X012148Y009572D01*
X012148Y009648D01*
X012224Y009725D01*
X012301Y009725D01*
X012224Y009725D02*
X012148Y009802D01*
X012148Y009879D01*
X012224Y009955D01*
X012378Y009955D01*
X012455Y009879D01*
X012608Y009879D02*
X012685Y009955D01*
X012838Y009955D01*
X012915Y009879D01*
X012915Y009572D01*
X012838Y009495D01*
X011994Y009572D02*
X011687Y009879D01*
X011687Y009572D01*
X011764Y009495D01*
X011918Y009495D01*
X011994Y009572D01*
X011994Y009879D01*
X011918Y009955D01*
X011764Y009955D01*
X011687Y009879D01*
X011534Y009802D02*
X011380Y009955D01*
X011380Y009495D01*
X011227Y009495D02*
X011534Y009495D01*
X016005Y006405D02*
X016005Y005945D01*
X015852Y005945D02*
X016159Y005945D01*
X016312Y006022D02*
X016389Y005945D01*
X016543Y005945D01*
X016619Y006022D01*
X016312Y006329D01*
X016312Y006022D01*
X016159Y006252D02*
X016005Y006405D01*
X016312Y006329D02*
X016389Y006405D01*
X016543Y006405D01*
X016619Y006329D01*
X016619Y006022D01*
X016773Y006022D02*
X016849Y005945D01*
X017003Y005945D01*
X017080Y006022D01*
X017233Y006022D02*
X017310Y005945D01*
X017463Y005945D01*
X017540Y006022D01*
X017540Y006329D01*
X017463Y006405D01*
X017310Y006405D01*
X017233Y006329D01*
X017233Y006022D01*
X017233Y005945D02*
X017387Y006098D01*
X017080Y006329D02*
X017003Y006405D01*
X016849Y006405D01*
X016773Y006329D01*
X016773Y006252D01*
X016849Y006175D01*
X016773Y006098D01*
X016773Y006022D01*
X016849Y006175D02*
X016926Y006175D01*
X017872Y006442D02*
X018179Y006442D01*
X018026Y006442D02*
X018026Y006903D01*
X018179Y006749D01*
X018333Y006826D02*
X018640Y006519D01*
X018563Y006442D01*
X018409Y006442D01*
X018333Y006519D01*
X018333Y006826D01*
X018409Y006903D01*
X018563Y006903D01*
X018640Y006826D01*
X018640Y006519D01*
X018793Y006519D02*
X018870Y006442D01*
X019023Y006442D01*
X019100Y006519D01*
X019253Y006519D02*
X019253Y006826D01*
X019330Y006903D01*
X019560Y006903D01*
X019560Y006442D01*
X019330Y006442D01*
X019253Y006519D01*
X018946Y006673D02*
X018870Y006673D01*
X018793Y006596D01*
X018793Y006519D01*
X018870Y006673D02*
X018793Y006749D01*
X018793Y006826D01*
X018870Y006903D01*
X019023Y006903D01*
X019100Y006826D01*
X019036Y007120D02*
X018883Y007120D01*
X018806Y007197D01*
X018806Y007273D01*
X018883Y007350D01*
X018960Y007350D01*
X018883Y007350D02*
X018806Y007427D01*
X018806Y007504D01*
X018883Y007580D01*
X019036Y007580D01*
X019113Y007504D01*
X019267Y007504D02*
X019267Y007350D01*
X019343Y007273D01*
X019574Y007273D01*
X019574Y007120D02*
X019574Y007580D01*
X019343Y007580D01*
X019267Y007504D01*
X019420Y007273D02*
X019267Y007120D01*
X019113Y007197D02*
X019036Y007120D01*
X018653Y007197D02*
X018653Y007504D01*
X018576Y007580D01*
X018423Y007580D01*
X018346Y007504D01*
X018653Y007197D01*
X018576Y007120D01*
X018423Y007120D01*
X018346Y007197D01*
X018346Y007504D01*
X018192Y007504D02*
X018192Y007427D01*
X018116Y007350D01*
X017962Y007350D01*
X017885Y007273D01*
X017885Y007197D01*
X017962Y007120D01*
X018116Y007120D01*
X018192Y007197D01*
X018192Y007273D01*
X018116Y007350D01*
X017962Y007350D02*
X017885Y007427D01*
X017885Y007504D01*
X017962Y007580D01*
X018116Y007580D01*
X018192Y007504D01*
X018192Y008120D02*
X018192Y008197D01*
X017885Y008504D01*
X017885Y008580D01*
X018192Y008580D01*
X018346Y008504D02*
X018653Y008197D01*
X018576Y008120D01*
X018423Y008120D01*
X018346Y008197D01*
X018346Y008504D01*
X018423Y008580D01*
X018576Y008580D01*
X018653Y008504D01*
X018653Y008197D01*
X018806Y008197D02*
X018883Y008120D01*
X019036Y008120D01*
X019113Y008197D01*
X019267Y008120D02*
X019420Y008273D01*
X019343Y008273D02*
X019574Y008273D01*
X019574Y008120D02*
X019574Y008580D01*
X019343Y008580D01*
X019267Y008504D01*
X019267Y008350D01*
X019343Y008273D01*
X019113Y008504D02*
X019036Y008580D01*
X018883Y008580D01*
X018806Y008504D01*
X018806Y008427D01*
X018883Y008350D01*
X018806Y008273D01*
X018806Y008197D01*
X018883Y008350D02*
X018960Y008350D01*
X018067Y006322D02*
X020870Y006322D01*
X024977Y004379D02*
X024977Y004072D01*
X025054Y003995D01*
X025207Y003995D01*
X025284Y004072D01*
X024977Y004379D01*
X025054Y004455D01*
X025207Y004455D01*
X025284Y004379D01*
X025284Y004072D01*
X025437Y003995D02*
X025744Y003995D01*
X025591Y003995D02*
X025591Y004455D01*
X025744Y004302D01*
X025898Y004302D02*
X025974Y004225D01*
X025898Y004148D01*
X025898Y004072D01*
X025974Y003995D01*
X026128Y003995D01*
X026205Y004072D01*
X026358Y003995D02*
X026512Y004148D01*
X026435Y004148D02*
X026665Y004148D01*
X026665Y003995D02*
X026665Y004455D01*
X026435Y004455D01*
X026358Y004379D01*
X026358Y004225D01*
X026435Y004148D01*
X026205Y004379D02*
X026128Y004455D01*
X025974Y004455D01*
X025898Y004379D01*
X025898Y004302D01*
X025974Y004225D02*
X026051Y004225D01*
X020870Y003878D02*
X018067Y003878D01*
X015165Y003870D02*
X015165Y004330D01*
X014935Y004330D01*
X014858Y004254D01*
X014858Y004100D01*
X014935Y004023D01*
X015165Y004023D01*
X015012Y004023D02*
X014858Y003870D01*
X014705Y003947D02*
X014628Y003870D01*
X014474Y003870D01*
X014398Y003947D01*
X014398Y004023D01*
X014474Y004100D01*
X014551Y004100D01*
X014474Y004100D02*
X014398Y004177D01*
X014398Y004254D01*
X014474Y004330D01*
X014628Y004330D01*
X014705Y004254D01*
X014244Y004254D02*
X014168Y004330D01*
X014014Y004330D01*
X013937Y004254D01*
X014244Y003947D01*
X014168Y003870D01*
X014014Y003870D01*
X013937Y003947D01*
X013937Y004254D01*
X013784Y004254D02*
X013784Y004177D01*
X013707Y004100D01*
X013477Y004100D01*
X013477Y003947D02*
X013477Y004254D01*
X013554Y004330D01*
X013707Y004330D01*
X013784Y004254D01*
X013784Y003947D02*
X013707Y003870D01*
X013554Y003870D01*
X013477Y003947D01*
X014244Y003947D02*
X014244Y004254D01*
X023510Y009670D02*
X023817Y009670D01*
X023510Y009977D01*
X023510Y010054D01*
X023587Y010130D01*
X023741Y010130D01*
X023817Y010054D01*
X023971Y010054D02*
X024278Y009747D01*
X024201Y009670D01*
X024048Y009670D01*
X023971Y009747D01*
X023971Y010054D01*
X024048Y010130D01*
X024201Y010130D01*
X024278Y010054D01*
X024278Y009747D01*
X024431Y009747D02*
X024508Y009670D01*
X024661Y009670D01*
X024738Y009747D01*
X024892Y009747D02*
X024968Y009670D01*
X025122Y009670D01*
X025199Y009747D01*
X025199Y010054D01*
X025122Y010130D01*
X024968Y010130D01*
X024892Y010054D01*
X024892Y009747D01*
X024892Y009670D02*
X025045Y009823D01*
X024738Y010054D02*
X024661Y010130D01*
X024508Y010130D01*
X024431Y010054D01*
X024431Y009977D01*
X024508Y009900D01*
X024431Y009823D01*
X024431Y009747D01*
X024508Y009900D02*
X024585Y009900D01*
X027510Y009754D02*
X027510Y009677D01*
X027817Y009370D01*
X027510Y009370D01*
X027971Y009447D02*
X028048Y009370D01*
X028201Y009370D01*
X028278Y009447D01*
X027971Y009754D01*
X027971Y009447D01*
X028278Y009447D02*
X028278Y009754D01*
X028201Y009830D01*
X028048Y009830D01*
X027971Y009754D01*
X027817Y009754D02*
X027741Y009830D01*
X027587Y009830D01*
X027510Y009754D01*
X028431Y009754D02*
X028431Y009677D01*
X028508Y009600D01*
X028431Y009523D01*
X028431Y009447D01*
X028508Y009370D01*
X028661Y009370D01*
X028738Y009447D01*
X028892Y009447D02*
X028968Y009370D01*
X029122Y009370D01*
X029199Y009447D01*
X029199Y009754D01*
X029122Y009830D01*
X028968Y009830D01*
X028892Y009754D01*
X028738Y009754D02*
X028661Y009830D01*
X028508Y009830D01*
X028431Y009754D01*
X028508Y009600D02*
X028585Y009600D01*
X038135Y009677D02*
X038442Y009370D01*
X038135Y009370D01*
X038135Y009677D02*
X038135Y009754D01*
X038212Y009830D01*
X038366Y009830D01*
X038442Y009754D01*
X038596Y009754D02*
X038903Y009447D01*
X038826Y009370D01*
X038673Y009370D01*
X038596Y009447D01*
X038596Y009754D01*
X038673Y009830D01*
X038826Y009830D01*
X038903Y009754D01*
X038903Y009447D01*
X039056Y009370D02*
X039363Y009370D01*
X039210Y009370D02*
X039210Y009830D01*
X039363Y009677D01*
X039517Y009754D02*
X039517Y009600D01*
X039593Y009523D01*
X039824Y009523D01*
X039824Y009370D02*
X039824Y009830D01*
X039593Y009830D01*
X039517Y009754D01*
X039670Y009523D02*
X039517Y009370D01*
X041627Y010080D02*
X041687Y010020D01*
X041807Y010020D01*
X041867Y010080D01*
X041867Y010140D01*
X041807Y010200D01*
X041687Y010200D01*
X041627Y010140D01*
X041627Y010080D01*
X041687Y010200D02*
X041627Y010260D01*
X041627Y010320D01*
X041687Y010380D01*
X041807Y010380D01*
X041867Y010320D01*
X041867Y010260D01*
X041807Y010200D01*
X045885Y012072D02*
X045962Y011995D01*
X046116Y011995D01*
X046192Y012072D01*
X046346Y012072D02*
X046423Y011995D01*
X046576Y011995D01*
X046653Y012072D01*
X046346Y012379D01*
X046346Y012072D01*
X046346Y012379D02*
X046423Y012455D01*
X046576Y012455D01*
X046653Y012379D01*
X046653Y012072D01*
X046806Y011995D02*
X047113Y011995D01*
X046960Y011995D02*
X046960Y012455D01*
X047113Y012302D01*
X047267Y012379D02*
X047343Y012455D01*
X047497Y012455D01*
X047574Y012379D01*
X047574Y012072D01*
X047497Y011995D01*
X047343Y011995D01*
X047267Y012072D01*
X046192Y012379D02*
X046116Y012455D01*
X045962Y012455D01*
X045885Y012379D01*
X045885Y012302D01*
X045962Y012225D01*
X045885Y012148D01*
X045885Y012072D01*
X045962Y012225D02*
X046039Y012225D01*
X041867Y013580D02*
X041867Y013640D01*
X041807Y013700D01*
X041687Y013700D01*
X041627Y013640D01*
X041627Y013580D01*
X041687Y013520D01*
X041807Y013520D01*
X041867Y013580D01*
X041807Y013700D02*
X041867Y013760D01*
X041867Y013820D01*
X041807Y013880D01*
X041687Y013880D01*
X041627Y013820D01*
X041627Y013760D01*
X041687Y013700D01*
X039824Y013330D02*
X039824Y012870D01*
X039824Y013023D02*
X039593Y013023D01*
X039517Y013100D01*
X039517Y013254D01*
X039593Y013330D01*
X039824Y013330D01*
X039670Y013023D02*
X039517Y012870D01*
X039363Y012870D02*
X039056Y012870D01*
X039210Y012870D02*
X039210Y013330D01*
X039363Y013177D01*
X038903Y013254D02*
X038903Y012947D01*
X038596Y013254D01*
X038596Y012947D01*
X038673Y012870D01*
X038826Y012870D01*
X038903Y012947D01*
X038903Y013254D02*
X038826Y013330D01*
X038673Y013330D01*
X038596Y013254D01*
X038442Y013254D02*
X038366Y013330D01*
X038212Y013330D01*
X038135Y013254D01*
X038135Y013177D01*
X038212Y013100D01*
X038135Y013023D01*
X038135Y012947D01*
X038212Y012870D01*
X038366Y012870D01*
X038442Y012947D01*
X038289Y013100D02*
X038212Y013100D01*
X038212Y016370D02*
X038212Y016830D01*
X038442Y016600D01*
X038135Y016600D01*
X038596Y016447D02*
X038673Y016370D01*
X038826Y016370D01*
X038903Y016447D01*
X038596Y016754D01*
X038596Y016447D01*
X038596Y016754D02*
X038673Y016830D01*
X038826Y016830D01*
X038903Y016754D01*
X038903Y016447D01*
X039056Y016370D02*
X039363Y016370D01*
X039210Y016370D02*
X039210Y016830D01*
X039363Y016677D01*
X039517Y016754D02*
X039517Y016600D01*
X039593Y016523D01*
X039824Y016523D01*
X039824Y016370D02*
X039824Y016830D01*
X039593Y016830D01*
X039517Y016754D01*
X039670Y016523D02*
X039517Y016370D01*
X041627Y017080D02*
X041687Y017020D01*
X041807Y017020D01*
X041867Y017080D01*
X041867Y017140D01*
X041807Y017200D01*
X041687Y017200D01*
X041627Y017140D01*
X041627Y017080D01*
X041687Y017200D02*
X041627Y017260D01*
X041627Y017320D01*
X041687Y017380D01*
X041807Y017380D01*
X041867Y017320D01*
X041867Y017260D01*
X041807Y017200D01*
X046260Y016100D02*
X046567Y016100D01*
X046337Y016330D01*
X046337Y015870D01*
X046721Y015947D02*
X046721Y016254D01*
X047028Y015947D01*
X046951Y015870D01*
X046798Y015870D01*
X046721Y015947D01*
X046721Y016254D02*
X046798Y016330D01*
X046951Y016330D01*
X047028Y016254D01*
X047028Y015947D01*
X047181Y015870D02*
X047488Y015870D01*
X047335Y015870D02*
X047335Y016330D01*
X047488Y016177D01*
X047642Y016254D02*
X047718Y016330D01*
X047872Y016330D01*
X047949Y016254D01*
X047949Y015947D01*
X047872Y015870D01*
X047718Y015870D01*
X047642Y015947D01*
X047122Y019870D02*
X046968Y019870D01*
X046892Y019947D01*
X046738Y019870D02*
X046431Y019870D01*
X046585Y019870D02*
X046585Y020330D01*
X046738Y020177D01*
X046892Y020254D02*
X046968Y020330D01*
X047122Y020330D01*
X047199Y020254D01*
X047199Y019947D01*
X047122Y019870D01*
X046278Y019947D02*
X045971Y020254D01*
X045971Y019947D01*
X046048Y019870D01*
X046201Y019870D01*
X046278Y019947D01*
X046278Y020254D01*
X046201Y020330D01*
X046048Y020330D01*
X045971Y020254D01*
X045817Y020330D02*
X045817Y020100D01*
X045664Y020177D01*
X045587Y020177D01*
X045510Y020100D01*
X045510Y019947D01*
X045587Y019870D01*
X045741Y019870D01*
X045817Y019947D01*
X045817Y020330D02*
X045510Y020330D01*
X041867Y020580D02*
X041867Y020640D01*
X041807Y020700D01*
X041687Y020700D01*
X041627Y020640D01*
X041627Y020580D01*
X041687Y020520D01*
X041807Y020520D01*
X041867Y020580D01*
X041807Y020700D02*
X041867Y020760D01*
X041867Y020820D01*
X041807Y020880D01*
X041687Y020880D01*
X041627Y020820D01*
X041627Y020760D01*
X041687Y020700D01*
X039824Y020330D02*
X039824Y019870D01*
X039824Y020023D02*
X039593Y020023D01*
X039517Y020100D01*
X039517Y020254D01*
X039593Y020330D01*
X039824Y020330D01*
X039363Y020177D02*
X039210Y020330D01*
X039210Y019870D01*
X039363Y019870D02*
X039056Y019870D01*
X038903Y019947D02*
X038596Y020254D01*
X038596Y019947D01*
X038673Y019870D01*
X038826Y019870D01*
X038903Y019947D01*
X038903Y020254D01*
X038826Y020330D01*
X038673Y020330D01*
X038596Y020254D01*
X038442Y020330D02*
X038442Y020100D01*
X038289Y020177D01*
X038212Y020177D01*
X038135Y020100D01*
X038135Y019947D01*
X038212Y019870D01*
X038366Y019870D01*
X038442Y019947D01*
X038442Y020330D02*
X038135Y020330D01*
X039517Y019870D02*
X039670Y020023D01*
X024849Y022779D02*
X024338Y022779D01*
X024849Y022779D02*
X024849Y023114D01*
X024849Y023586D02*
X024849Y023921D01*
X024338Y023921D01*
X024338Y023488D02*
X024338Y023212D01*
X022915Y023245D02*
X022915Y023705D01*
X022685Y023705D01*
X022608Y023629D01*
X022608Y023475D01*
X022685Y023398D01*
X022915Y023398D01*
X022762Y023398D02*
X022608Y023245D01*
X022455Y023475D02*
X022148Y023475D01*
X021994Y023322D02*
X021687Y023629D01*
X021687Y023322D01*
X021764Y023245D01*
X021918Y023245D01*
X021994Y023322D01*
X021994Y023629D01*
X021918Y023705D01*
X021764Y023705D01*
X021687Y023629D01*
X021534Y023552D02*
X021380Y023705D01*
X021380Y023245D01*
X021227Y023245D02*
X021534Y023245D01*
X022224Y023245D02*
X022224Y023705D01*
X022455Y023475D01*
X006949Y020705D02*
X006949Y020245D01*
X006949Y020398D02*
X006718Y020398D01*
X006642Y020475D01*
X006642Y020629D01*
X006718Y020705D01*
X006949Y020705D01*
X006795Y020398D02*
X006642Y020245D01*
X006488Y020245D02*
X006181Y020245D01*
X006335Y020245D02*
X006335Y020705D01*
X006488Y020552D01*
X005199Y020705D02*
X005199Y020245D01*
X005199Y020398D02*
X004968Y020398D01*
X004892Y020475D01*
X004892Y020629D01*
X004968Y020705D01*
X005199Y020705D01*
X005045Y020398D02*
X004892Y020245D01*
X004738Y020245D02*
X004431Y020552D01*
X004431Y020629D01*
X004508Y020705D01*
X004661Y020705D01*
X004738Y020629D01*
X004738Y020245D02*
X004431Y020245D01*
X038289Y006330D02*
X038289Y005870D01*
X038442Y005870D02*
X038135Y005870D01*
X038442Y006177D02*
X038289Y006330D01*
X038596Y006254D02*
X038903Y005947D01*
X038826Y005870D01*
X038673Y005870D01*
X038596Y005947D01*
X038596Y006254D01*
X038673Y006330D01*
X038826Y006330D01*
X038903Y006254D01*
X038903Y005947D01*
X039056Y005870D02*
X039363Y005870D01*
X039210Y005870D02*
X039210Y006330D01*
X039363Y006177D01*
X039517Y006254D02*
X039517Y006100D01*
X039593Y006023D01*
X039824Y006023D01*
X039824Y005870D02*
X039824Y006330D01*
X039593Y006330D01*
X039517Y006254D01*
X039670Y006023D02*
X039517Y005870D01*
X041627Y006580D02*
X041687Y006520D01*
X041807Y006520D01*
X041867Y006580D01*
X041867Y006640D01*
X041807Y006700D01*
X041687Y006700D01*
X041627Y006640D01*
X041627Y006580D01*
X041687Y006700D02*
X041627Y006760D01*
X041627Y006820D01*
X041687Y006880D01*
X041807Y006880D01*
X041867Y006820D01*
X041867Y006760D01*
X041807Y006700D01*
X045760Y004870D02*
X046067Y004870D01*
X045914Y004870D02*
X045914Y005330D01*
X046067Y005177D01*
X046221Y005254D02*
X046528Y004947D01*
X046451Y004870D01*
X046298Y004870D01*
X046221Y004947D01*
X046221Y005254D01*
X046298Y005330D01*
X046451Y005330D01*
X046528Y005254D01*
X046528Y004947D01*
X046681Y004870D02*
X046988Y004870D01*
X046835Y004870D02*
X046835Y005330D01*
X046988Y005177D01*
X047142Y005254D02*
X047218Y005330D01*
X047372Y005330D01*
X047449Y005254D01*
X047449Y004947D01*
X047372Y004870D01*
X047218Y004870D01*
X047142Y004947D01*
X047181Y008620D02*
X047488Y008620D01*
X047335Y008620D02*
X047335Y009080D01*
X047488Y008927D01*
X047642Y009004D02*
X047718Y009080D01*
X047872Y009080D01*
X047949Y009004D01*
X047949Y008697D01*
X047872Y008620D01*
X047718Y008620D01*
X047642Y008697D01*
X047028Y008697D02*
X046951Y008620D01*
X046798Y008620D01*
X046721Y008697D01*
X046721Y009004D01*
X047028Y008697D01*
X047028Y009004D01*
X046951Y009080D01*
X046798Y009080D01*
X046721Y009004D01*
X046567Y009004D02*
X046491Y009080D01*
X046337Y009080D01*
X046260Y009004D01*
X046260Y008927D01*
X046567Y008620D01*
X046260Y008620D01*
D14*
X045963Y007474D02*
X045963Y006726D01*
X046533Y007100D01*
X045963Y007474D01*
X041533Y009100D02*
X040963Y008726D01*
X040963Y009474D01*
X041533Y009100D01*
X040963Y005974D02*
X040963Y005226D01*
X041533Y005600D01*
X040963Y005974D01*
X047713Y010476D02*
X048283Y010850D01*
X047713Y011224D01*
X047713Y010476D01*
X045963Y013726D02*
X046533Y014100D01*
X045963Y014474D01*
X045963Y013726D01*
X041533Y012600D02*
X040963Y012226D01*
X040963Y012974D01*
X041533Y012600D01*
X040963Y015726D02*
X041533Y016100D01*
X040963Y016474D01*
X040963Y015726D01*
X040963Y019226D02*
X041533Y019600D01*
X040963Y019974D01*
X040963Y019226D01*
X045713Y021726D02*
X046283Y022100D01*
X045713Y022474D01*
X045713Y021726D01*
X047713Y018474D02*
X047713Y017726D01*
X048283Y018100D01*
X047713Y018474D01*
D15*
X048303Y018100D03*
X041553Y019600D03*
X046303Y022100D03*
X041553Y016100D03*
X046553Y014100D03*
X041553Y012600D03*
X041553Y009100D03*
X046553Y007100D03*
X041553Y005600D03*
X048303Y010850D03*
D16*
X033144Y020280D02*
X033144Y021100D01*
X033144Y022100D01*
X033144Y022920D01*
X033142Y022943D01*
X033137Y022966D01*
X033128Y022988D01*
X033115Y023008D01*
X033100Y023026D01*
X033082Y023041D01*
X033062Y023054D01*
X033040Y023063D01*
X033017Y023068D01*
X032994Y023070D01*
X027194Y023070D01*
X027171Y023068D01*
X027148Y023063D01*
X027126Y023054D01*
X027106Y023041D01*
X027088Y023026D01*
X027073Y023008D01*
X027060Y022988D01*
X027051Y022966D01*
X027046Y022943D01*
X027044Y022920D01*
X027044Y020280D01*
X027046Y020257D01*
X027051Y020234D01*
X027060Y020212D01*
X027073Y020192D01*
X027088Y020174D01*
X027106Y020159D01*
X027126Y020146D01*
X027148Y020137D01*
X027171Y020132D01*
X027194Y020130D01*
X032994Y020130D01*
X033017Y020132D01*
X033040Y020137D01*
X033062Y020146D01*
X033082Y020159D01*
X033100Y020174D01*
X033115Y020192D01*
X033128Y020212D01*
X033137Y020234D01*
X033142Y020257D01*
X033144Y020280D01*
X033144Y021100D02*
X033100Y021102D01*
X033057Y021108D01*
X033015Y021117D01*
X032973Y021130D01*
X032933Y021147D01*
X032894Y021167D01*
X032857Y021190D01*
X032823Y021217D01*
X032790Y021246D01*
X032761Y021279D01*
X032734Y021313D01*
X032711Y021350D01*
X032691Y021389D01*
X032674Y021429D01*
X032661Y021471D01*
X032652Y021513D01*
X032646Y021556D01*
X032644Y021600D01*
X032646Y021644D01*
X032652Y021687D01*
X032661Y021729D01*
X032674Y021771D01*
X032691Y021811D01*
X032711Y021850D01*
X032734Y021887D01*
X032761Y021921D01*
X032790Y021954D01*
X032823Y021983D01*
X032857Y022010D01*
X032894Y022033D01*
X032933Y022053D01*
X032973Y022070D01*
X033015Y022083D01*
X033057Y022092D01*
X033100Y022098D01*
X033144Y022100D01*
X026193Y022117D02*
X026087Y022010D01*
X025873Y022010D01*
X025766Y022117D01*
X025766Y022544D01*
X025873Y022650D01*
X026087Y022650D01*
X026193Y022544D01*
X026193Y022117D01*
X025980Y022223D02*
X025766Y022010D01*
X025549Y022330D02*
X025122Y022330D01*
X024904Y022117D02*
X024477Y022544D01*
X024477Y022117D01*
X024584Y022010D01*
X024798Y022010D01*
X024904Y022117D01*
X024904Y022544D01*
X024798Y022650D01*
X024584Y022650D01*
X024477Y022544D01*
X024260Y022437D02*
X024046Y022650D01*
X024046Y022010D01*
X023833Y022010D02*
X024260Y022010D01*
X025229Y022010D02*
X025229Y022650D01*
X025549Y022330D01*
X025619Y008995D02*
X027319Y008995D01*
X027342Y008993D01*
X027365Y008988D01*
X027387Y008979D01*
X027407Y008966D01*
X027425Y008951D01*
X027440Y008933D01*
X027453Y008913D01*
X027462Y008891D01*
X027467Y008868D01*
X027469Y008845D01*
X027469Y007605D01*
X027467Y007582D01*
X027462Y007559D01*
X027453Y007537D01*
X027440Y007517D01*
X027425Y007499D01*
X027407Y007484D01*
X027387Y007471D01*
X027365Y007462D01*
X027342Y007457D01*
X027319Y007455D01*
X025619Y007455D01*
X025596Y007457D01*
X025573Y007462D01*
X025551Y007471D01*
X025531Y007484D01*
X025513Y007499D01*
X025498Y007517D01*
X025485Y007537D01*
X025476Y007559D01*
X025471Y007582D01*
X025469Y007605D01*
X025469Y008845D01*
X025471Y008868D01*
X025476Y008891D01*
X025485Y008913D01*
X025498Y008933D01*
X025513Y008951D01*
X025531Y008966D01*
X025551Y008979D01*
X025573Y008988D01*
X025596Y008993D01*
X025619Y008995D01*
X025469Y008425D02*
X025496Y008423D01*
X025523Y008418D01*
X025549Y008408D01*
X025573Y008396D01*
X025595Y008380D01*
X025615Y008362D01*
X025632Y008340D01*
X025647Y008317D01*
X025657Y008292D01*
X025665Y008266D01*
X025669Y008239D01*
X025669Y008211D01*
X025665Y008184D01*
X025657Y008158D01*
X025647Y008133D01*
X025632Y008110D01*
X025615Y008088D01*
X025595Y008070D01*
X025573Y008054D01*
X025549Y008042D01*
X025523Y008032D01*
X025496Y008027D01*
X025469Y008025D01*
X014844Y007480D02*
X014844Y008720D01*
X014842Y008743D01*
X014837Y008766D01*
X014828Y008788D01*
X014815Y008808D01*
X014800Y008826D01*
X014782Y008841D01*
X014762Y008854D01*
X014740Y008863D01*
X014717Y008868D01*
X014694Y008870D01*
X012994Y008870D01*
X012971Y008868D01*
X012948Y008863D01*
X012926Y008854D01*
X012906Y008841D01*
X012888Y008826D01*
X012873Y008808D01*
X012860Y008788D01*
X012851Y008766D01*
X012846Y008743D01*
X012844Y008720D01*
X012844Y007480D01*
X012846Y007457D01*
X012851Y007434D01*
X012860Y007412D01*
X012873Y007392D01*
X012888Y007374D01*
X012906Y007359D01*
X012926Y007346D01*
X012948Y007337D01*
X012971Y007332D01*
X012994Y007330D01*
X014694Y007330D01*
X014717Y007332D01*
X014740Y007337D01*
X014762Y007346D01*
X014782Y007359D01*
X014800Y007374D01*
X014815Y007392D01*
X014828Y007412D01*
X014837Y007434D01*
X014842Y007457D01*
X014844Y007480D01*
X012844Y007900D02*
X012871Y007902D01*
X012898Y007907D01*
X012924Y007917D01*
X012948Y007929D01*
X012970Y007945D01*
X012990Y007963D01*
X013007Y007985D01*
X013022Y008008D01*
X013032Y008033D01*
X013040Y008059D01*
X013044Y008086D01*
X013044Y008114D01*
X013040Y008141D01*
X013032Y008167D01*
X013022Y008192D01*
X013007Y008215D01*
X012990Y008237D01*
X012970Y008255D01*
X012948Y008271D01*
X012924Y008283D01*
X012898Y008293D01*
X012871Y008298D01*
X012844Y008300D01*
D17*
X027344Y020105D03*
X027844Y020105D03*
X028344Y020105D03*
X028844Y020105D03*
X029344Y020105D03*
X029844Y020105D03*
X030344Y020105D03*
X030844Y020105D03*
X031344Y020105D03*
X031844Y020105D03*
X032344Y020105D03*
X032844Y020105D03*
X032844Y023095D03*
X032344Y023095D03*
X031844Y023095D03*
X031344Y023095D03*
X030844Y023095D03*
X030344Y023095D03*
X029844Y023095D03*
X029344Y023095D03*
X028844Y023095D03*
X028344Y023095D03*
X027844Y023095D03*
X027344Y023095D03*
D18*
X019255Y005494D02*
X019255Y004706D01*
X019795Y005100D01*
X019255Y005494D01*
D19*
X020049Y005100D03*
M02*
