M48
INCH,TZ
T10C0.020
T11C0.024
T12C0.032
T13C0.032
T14C0.036
T15C0.040
T16C0.055
T17C0.142
%
T10
X032719Y004975
T11
X036344Y005225
X036344Y004600
X036344Y003975
X036344Y003350
X036094Y007850
X035469Y007850
X034844Y007850
X029219Y007975
X027469Y010600
X026719Y010600
X027469Y012600
X026594Y013100
X035344Y011350
X022219Y007850
X021344Y006975
X017219Y008100
X014719Y010225
X013969Y010225
X014719Y012600
X013969Y013100
X005469Y010600
X004969Y011350
X011344Y007600
X014594Y005975
X002344Y015475
X001719Y015475
X001094Y015475
X001094Y016100
X001094Y016725
X001094Y017350
X001094Y017975
X001094Y018600
X001094Y019225
X001094Y019850
X001094Y020475
X001094Y021100
X001094Y021725
X001094Y022350
X001094Y022975
X001719Y022975
X002344Y022975
X002969Y022975
X003594Y022975
X003844Y019600
X003219Y019600
X003219Y018725
X003844Y018725
X003844Y017850
X003219Y017850
X023219Y024600
X030469Y022600
X033719Y023350
X033469Y019600
X025594Y019100
T12
X022719Y019725
X021719Y019725
X020719Y019725
X019719Y019725
X018719Y019725
X017719Y019725
X016719Y019725
X015719Y019725
X014719Y019725
X013719Y019725
X012719Y019725
X011719Y019725
X010719Y019725
X009719Y019725
X008719Y019725
X009219Y021725
X008219Y021725
X008219Y022725
X009219Y022725
X009219Y023725
X008219Y023725
X008719Y025725
X009719Y025725
X010719Y025725
X011719Y025725
X012719Y025725
X013719Y025725
X014719Y025725
X015719Y025725
X016719Y025725
X017719Y025725
X018719Y025725
X019719Y025725
X020719Y025725
X021719Y025725
X022719Y025725
T13
X041719Y003050
X041719Y001650
X045219Y001650
X045219Y003050
T14
X009969Y016100
X008969Y016100
X001594Y012975
X001594Y011975
T15
X013719Y015100
X014719Y015100
X015719Y015100
X016719Y015100
X026719Y017475
X027719Y017475
X028719Y017475
X029719Y017475
X030719Y017475
X031719Y017475
X032719Y017475
X033719Y017475
X034719Y017475
X035719Y017475
X035719Y025725
X034719Y025725
X033719Y025725
X032719Y025725
X031719Y025725
X030719Y025725
X029719Y025725
X028719Y025725
X027719Y025725
X026719Y025725
X008469Y003725
X007469Y003725
X006469Y003725
X005469Y003725
T16
X011719Y003241
X011719Y005209
X016359Y010725
X018328Y010725
X020734Y010725
X022703Y010725
X022719Y005209
X022719Y003241
X043719Y005616
X043719Y007584
X045469Y009116
X048469Y007584
X050219Y009116
X050219Y011084
X048469Y012616
X045469Y011084
X043719Y012616
X043719Y014584
X045469Y016366
X048469Y014584
X050219Y016366
X050219Y018334
X048469Y020116
X048469Y022084
X043719Y022084
X043719Y020116
X045469Y018334
X048469Y005616
T17
X002581Y002462
X002581Y025297
X050219Y025297
X050219Y002462
M30

