G75*
G70*
%OFA0B0*%
%FSLAX24Y24*%
%IPPOS*%
%LPD*%
%AMOC8*
5,1,8,0,0,1.08239X$1,22.5*
%
%ADD10C,0.1000*%
%ADD11OC8,0.0630*%
%ADD12C,0.0630*%
%ADD13C,0.0515*%
%ADD14C,0.0515*%
%ADD15R,0.0800X0.0260*%
%ADD16R,0.0500X0.1000*%
%ADD17R,0.0709X0.0630*%
%ADD18R,0.0354X0.0236*%
%ADD19R,0.1280X0.0984*%
%ADD20R,0.0709X0.0551*%
%ADD21R,0.0630X0.0709*%
%ADD22R,0.0512X0.0591*%
%ADD23R,0.0709X0.0669*%
%ADD24R,0.1181X0.0472*%
%ADD25R,0.0591X0.0512*%
%ADD26C,0.0560*%
%ADD27C,0.0600*%
%ADD28R,0.0260X0.0800*%
%ADD29R,0.0660X0.0320*%
%ADD30R,0.0787X0.0591*%
%ADD31R,0.0787X0.1496*%
%ADD32C,0.0160*%
%ADD33R,0.0396X0.0396*%
%ADD34C,0.0357*%
%ADD35C,0.0240*%
%ADD36C,0.0320*%
%ADD37C,0.0660*%
%ADD38C,0.0400*%
%ADD39C,0.0500*%
D10*
X011719Y002741D02*
X011719Y003741D01*
X011719Y004709D02*
X011719Y005709D01*
X015859Y010725D02*
X016859Y010725D01*
X017828Y010725D02*
X018828Y010725D01*
X020234Y010725D02*
X021234Y010725D01*
X022203Y010725D02*
X023203Y010725D01*
X022719Y005709D02*
X022719Y004709D01*
X022719Y003741D02*
X022719Y002741D01*
X043719Y005116D02*
X043719Y006116D01*
X043719Y007084D02*
X043719Y008084D01*
X045469Y008616D02*
X045469Y009616D01*
X045469Y010584D02*
X045469Y011584D01*
X043719Y012116D02*
X043719Y013116D01*
X043719Y014084D02*
X043719Y015084D01*
X045469Y015866D02*
X045469Y016866D01*
X045469Y017834D02*
X045469Y018834D01*
X043719Y019616D02*
X043719Y020616D01*
X043719Y021584D02*
X043719Y022584D01*
X048469Y022584D02*
X048469Y021584D01*
X048469Y020616D02*
X048469Y019616D01*
X050219Y018834D02*
X050219Y017834D01*
X050219Y016866D02*
X050219Y015866D01*
X048469Y015084D02*
X048469Y014084D01*
X048469Y013116D02*
X048469Y012116D01*
X050219Y011584D02*
X050219Y010584D01*
X050219Y009616D02*
X050219Y008616D01*
X048469Y008084D02*
X048469Y007084D01*
X048469Y006116D02*
X048469Y005116D01*
D11*
X045219Y003050D03*
X041719Y003050D03*
D12*
X041719Y001650D03*
X045219Y001650D03*
D13*
X022719Y019468D02*
X022719Y019982D01*
X021719Y019982D02*
X021719Y019468D01*
X020719Y019468D02*
X020719Y019982D01*
X019719Y019982D02*
X019719Y019468D01*
X018719Y019468D02*
X018719Y019982D01*
X017719Y019982D02*
X017719Y019468D01*
X016719Y019468D02*
X016719Y019982D01*
X015719Y019982D02*
X015719Y019468D01*
X014719Y019468D02*
X014719Y019982D01*
X013719Y019982D02*
X013719Y019468D01*
X012719Y019468D02*
X012719Y019982D01*
X011719Y019982D02*
X011719Y019468D01*
X010719Y019468D02*
X010719Y019982D01*
X009719Y019982D02*
X009719Y019468D01*
X008719Y019468D02*
X008719Y019982D01*
X008719Y025468D02*
X008719Y025982D01*
X009719Y025982D02*
X009719Y025468D01*
X010719Y025468D02*
X010719Y025982D01*
X011719Y025982D02*
X011719Y025468D01*
X012719Y025468D02*
X012719Y025982D01*
X013719Y025982D02*
X013719Y025468D01*
X014719Y025468D02*
X014719Y025982D01*
X015719Y025982D02*
X015719Y025468D01*
X016719Y025468D02*
X016719Y025982D01*
X017719Y025982D02*
X017719Y025468D01*
X018719Y025468D02*
X018719Y025982D01*
X019719Y025982D02*
X019719Y025468D01*
X020719Y025468D02*
X020719Y025982D01*
X021719Y025982D02*
X021719Y025468D01*
X022719Y025468D02*
X022719Y025982D01*
D14*
X009219Y023725D03*
X008219Y023725D03*
X008219Y022725D03*
X009219Y022725D03*
X009219Y021725D03*
X008219Y021725D03*
D15*
X029259Y021850D03*
X029259Y021350D03*
X029259Y020850D03*
X029259Y020350D03*
X029259Y019850D03*
X031679Y019850D03*
X031679Y020350D03*
X031679Y020850D03*
X031679Y021350D03*
X031679Y021850D03*
X031679Y022350D03*
X031679Y022850D03*
X031679Y023350D03*
X029259Y023350D03*
X029259Y022850D03*
X029259Y022350D03*
D16*
X027594Y021600D03*
X026594Y021600D03*
X026594Y019975D03*
X027594Y019975D03*
X027594Y023225D03*
X026594Y023225D03*
D17*
X025344Y024799D03*
X024219Y024799D03*
X024219Y025901D03*
X025344Y025901D03*
X032844Y022776D03*
X032844Y021674D03*
X035844Y013401D03*
X035844Y012299D03*
X036094Y009776D03*
X035094Y009776D03*
X035094Y008674D03*
X036094Y008674D03*
X021219Y003526D03*
X021219Y002424D03*
D18*
X032266Y004601D03*
X032266Y004975D03*
X033171Y004975D03*
X033171Y004601D03*
X033171Y005349D03*
X032266Y005349D03*
D19*
X032969Y007544D03*
X032969Y009906D03*
D20*
X030844Y009394D03*
X030844Y008056D03*
D21*
X032042Y006225D03*
X033145Y006225D03*
X034542Y004850D03*
X035645Y004850D03*
X035645Y003725D03*
X034542Y003725D03*
X004520Y015600D03*
X003417Y015600D03*
X003417Y016725D03*
X004520Y016725D03*
X004645Y020725D03*
X003542Y020725D03*
D22*
X013969Y023600D03*
X014718Y023600D03*
X014718Y024475D03*
X013969Y024475D03*
X018969Y009225D03*
X019718Y009225D03*
X019718Y008225D03*
X018969Y008225D03*
X020719Y008225D03*
X021468Y008225D03*
X019218Y003475D03*
X018469Y003475D03*
X018469Y002475D03*
X019218Y002475D03*
X030719Y003725D03*
X031468Y003725D03*
X032469Y003725D03*
X033218Y003725D03*
D23*
X034286Y006225D03*
X035901Y006225D03*
D24*
X009486Y008817D03*
X009486Y009604D03*
X009486Y010391D03*
X009486Y011179D03*
X009486Y011966D03*
X009486Y012754D03*
X009486Y013541D03*
X009486Y014328D03*
X003030Y014328D03*
X003030Y013541D03*
X003030Y012754D03*
X003030Y011966D03*
X003030Y011179D03*
X003030Y010391D03*
X003030Y009604D03*
X003030Y008817D03*
D25*
X010719Y009226D03*
X010719Y009974D03*
X020219Y003474D03*
X020219Y002726D03*
D26*
X001874Y011975D02*
X001314Y011975D01*
X001314Y012975D02*
X001874Y012975D01*
X008969Y015820D02*
X008969Y016380D01*
X009969Y016380D02*
X009969Y015820D01*
D27*
X005469Y004025D02*
X005469Y003425D01*
X006469Y003425D02*
X006469Y004025D01*
X007469Y004025D02*
X007469Y003425D01*
X008469Y003425D02*
X008469Y004025D01*
X013719Y014800D02*
X013719Y015400D01*
X014719Y015400D02*
X014719Y014800D01*
X015719Y014800D02*
X015719Y015400D01*
X016719Y015400D02*
X016719Y014800D01*
X026719Y017175D02*
X026719Y017775D01*
X027719Y017775D02*
X027719Y017175D01*
X028719Y017175D02*
X028719Y017775D01*
X029719Y017775D02*
X029719Y017175D01*
X030719Y017175D02*
X030719Y017775D01*
X031719Y017775D02*
X031719Y017175D01*
X032719Y017175D02*
X032719Y017775D01*
X033719Y017775D02*
X033719Y017175D01*
X034719Y017175D02*
X034719Y017775D01*
X035719Y017775D02*
X035719Y017175D01*
X035719Y025425D02*
X035719Y026025D01*
X034719Y026025D02*
X034719Y025425D01*
X033719Y025425D02*
X033719Y026025D01*
X032719Y026025D02*
X032719Y025425D01*
X031719Y025425D02*
X031719Y026025D01*
X030719Y026025D02*
X030719Y025425D01*
X029719Y025425D02*
X029719Y026025D01*
X028719Y026025D02*
X028719Y025425D01*
X027719Y025425D02*
X027719Y026025D01*
X026719Y026025D02*
X026719Y025425D01*
D28*
X020094Y007185D03*
X019594Y007185D03*
X019094Y007185D03*
X018594Y007185D03*
X018594Y004765D03*
X019094Y004765D03*
X019594Y004765D03*
X020094Y004765D03*
D29*
X032219Y012100D03*
X032219Y012600D03*
X032219Y013100D03*
X032219Y013600D03*
X034719Y013600D03*
X034719Y013100D03*
X034719Y012600D03*
X034719Y012100D03*
D30*
X004709Y017819D03*
X004709Y018725D03*
X004709Y019631D03*
D31*
X002228Y018725D03*
D32*
X001595Y018803D02*
X000719Y018803D01*
X000719Y018645D02*
X001595Y018645D01*
X001595Y018486D02*
X000719Y018486D01*
X000719Y018328D02*
X001595Y018328D01*
X001595Y018169D02*
X000719Y018169D01*
X000719Y018011D02*
X001595Y018011D01*
X001595Y017929D02*
X001631Y017841D01*
X001699Y017774D01*
X001787Y017737D01*
X001788Y017737D01*
X001788Y017003D01*
X001855Y016841D01*
X002220Y016476D01*
X002344Y016352D01*
X002506Y016285D01*
X002878Y016285D01*
X002899Y016235D01*
X002966Y016167D01*
X002977Y016163D01*
X002977Y016162D01*
X002966Y016158D01*
X002899Y016090D01*
X002862Y016002D01*
X002862Y015198D01*
X002899Y015110D01*
X002909Y015100D01*
X000719Y015100D01*
X000719Y023225D01*
X004205Y023225D01*
X004205Y021287D01*
X004194Y021283D01*
X004126Y021215D01*
X004090Y021127D01*
X004090Y020323D01*
X004126Y020235D01*
X004194Y020167D01*
X004232Y020151D01*
X004179Y020129D01*
X004112Y020062D01*
X004075Y019974D01*
X004075Y019287D01*
X004112Y019199D01*
X004133Y019178D01*
X004112Y019156D01*
X004075Y019068D01*
X004075Y018382D01*
X004112Y018294D01*
X004175Y018230D01*
X004171Y018225D01*
X004147Y018184D01*
X004135Y018138D01*
X004135Y017887D01*
X004641Y017887D01*
X004641Y017752D01*
X004135Y017752D01*
X004135Y017501D01*
X004147Y017455D01*
X004171Y017414D01*
X004204Y017380D01*
X004245Y017356D01*
X004291Y017344D01*
X004641Y017344D01*
X004641Y017752D01*
X004776Y017752D01*
X004776Y017344D01*
X005126Y017344D01*
X005172Y017356D01*
X005213Y017380D01*
X005246Y017414D01*
X005270Y017455D01*
X005282Y017501D01*
X005282Y017752D01*
X004776Y017752D01*
X004776Y017887D01*
X005282Y017887D01*
X005282Y018138D01*
X005270Y018184D01*
X005246Y018225D01*
X005242Y018230D01*
X005306Y018294D01*
X005342Y018382D01*
X005342Y019068D01*
X005306Y019156D01*
X005284Y019178D01*
X005306Y019199D01*
X005342Y019287D01*
X005342Y019974D01*
X005306Y020062D01*
X005238Y020129D01*
X005150Y020166D01*
X005149Y020166D01*
X005149Y020220D01*
X005163Y020235D01*
X005200Y020323D01*
X005200Y021127D01*
X005163Y021215D01*
X005096Y021283D01*
X005085Y021287D01*
X005085Y023225D01*
X007844Y023225D01*
X007844Y023054D01*
X007797Y023007D01*
X007721Y022824D01*
X007721Y022626D01*
X007797Y022443D01*
X007844Y022396D01*
X007844Y022054D01*
X007797Y022007D01*
X007721Y021824D01*
X007721Y021626D01*
X007797Y021443D01*
X007844Y021396D01*
X007844Y015100D01*
X004942Y015100D01*
X004945Y015102D01*
X004979Y015135D01*
X005002Y015176D01*
X005015Y015222D01*
X005015Y015523D01*
X004597Y015523D01*
X004597Y015677D01*
X005015Y015677D01*
X005015Y015978D01*
X005002Y016024D01*
X004979Y016065D01*
X004945Y016098D01*
X004904Y016122D01*
X004858Y016134D01*
X004597Y016134D01*
X004597Y015677D01*
X004442Y015677D01*
X004442Y015523D01*
X004025Y015523D01*
X004025Y015291D01*
X003972Y015343D01*
X003972Y016002D01*
X003936Y016090D01*
X003868Y016158D01*
X003857Y016162D01*
X003857Y016163D01*
X003868Y016167D01*
X003936Y016235D01*
X003972Y016323D01*
X003972Y017127D01*
X003936Y017215D01*
X003868Y017283D01*
X003780Y017319D01*
X003055Y017319D01*
X002966Y017283D01*
X002899Y017215D01*
X002878Y017165D01*
X002776Y017165D01*
X002668Y017272D01*
X002668Y017737D01*
X002670Y017737D01*
X002758Y017774D01*
X002826Y017841D01*
X002862Y017929D01*
X002862Y019521D01*
X002826Y019609D01*
X002758Y019676D01*
X002670Y019713D01*
X001787Y019713D01*
X001699Y019676D01*
X001631Y019609D01*
X001595Y019521D01*
X001595Y017929D01*
X001627Y017852D02*
X000719Y017852D01*
X000719Y017694D02*
X001788Y017694D01*
X001788Y017535D02*
X000719Y017535D01*
X000719Y017377D02*
X001788Y017377D01*
X001788Y017218D02*
X000719Y017218D01*
X000719Y017060D02*
X001788Y017060D01*
X001830Y016901D02*
X000719Y016901D01*
X000719Y016743D02*
X001954Y016743D01*
X002112Y016584D02*
X000719Y016584D01*
X000719Y016426D02*
X002271Y016426D01*
X002886Y016267D02*
X000719Y016267D01*
X000719Y016109D02*
X002917Y016109D01*
X002862Y015950D02*
X000719Y015950D01*
X000719Y015792D02*
X002862Y015792D01*
X002862Y015633D02*
X000719Y015633D01*
X000719Y015475D02*
X002862Y015475D01*
X002862Y015316D02*
X000719Y015316D01*
X000719Y015158D02*
X002879Y015158D01*
X004000Y015316D02*
X004025Y015316D01*
X004025Y015475D02*
X003972Y015475D01*
X003972Y015633D02*
X004442Y015633D01*
X004442Y015677D02*
X004025Y015677D01*
X004025Y015978D01*
X004037Y016024D01*
X004061Y016065D01*
X004094Y016098D01*
X004135Y016122D01*
X004181Y016134D01*
X004442Y016134D01*
X004442Y015677D01*
X004442Y015792D02*
X004597Y015792D01*
X004597Y015950D02*
X004442Y015950D01*
X004442Y016109D02*
X004597Y016109D01*
X004597Y016191D02*
X004858Y016191D01*
X004904Y016203D01*
X004945Y016227D01*
X004979Y016260D01*
X005002Y016301D01*
X005015Y016347D01*
X005015Y016648D01*
X004597Y016648D01*
X004597Y016802D01*
X005015Y016802D01*
X005015Y017103D01*
X005002Y017149D01*
X004979Y017190D01*
X004945Y017223D01*
X004904Y017247D01*
X004858Y017259D01*
X004597Y017259D01*
X004597Y016802D01*
X004442Y016802D01*
X004442Y016648D01*
X004025Y016648D01*
X004025Y016347D01*
X004037Y016301D01*
X004061Y016260D01*
X004094Y016227D01*
X004135Y016203D01*
X004181Y016191D01*
X004442Y016191D01*
X004442Y016648D01*
X004597Y016648D01*
X004597Y016191D01*
X004597Y016267D02*
X004442Y016267D01*
X004442Y016426D02*
X004597Y016426D01*
X004597Y016584D02*
X004442Y016584D01*
X004442Y016743D02*
X003972Y016743D01*
X004025Y016802D02*
X004442Y016802D01*
X004442Y017259D01*
X004181Y017259D01*
X004135Y017247D01*
X004094Y017223D01*
X004061Y017190D01*
X004037Y017149D01*
X004025Y017103D01*
X004025Y016802D01*
X004025Y016901D02*
X003972Y016901D01*
X003972Y017060D02*
X004025Y017060D01*
X004089Y017218D02*
X003933Y017218D01*
X004211Y017377D02*
X002668Y017377D01*
X002668Y017535D02*
X004135Y017535D01*
X004135Y017694D02*
X002668Y017694D01*
X002830Y017852D02*
X004641Y017852D01*
X004776Y017852D02*
X007844Y017852D01*
X007844Y017694D02*
X005282Y017694D01*
X005282Y017535D02*
X007844Y017535D01*
X007844Y017377D02*
X005207Y017377D01*
X004951Y017218D02*
X007844Y017218D01*
X007844Y017060D02*
X005015Y017060D01*
X005015Y016901D02*
X007844Y016901D01*
X007844Y016743D02*
X004597Y016743D01*
X004597Y016901D02*
X004442Y016901D01*
X004442Y017060D02*
X004597Y017060D01*
X004597Y017218D02*
X004442Y017218D01*
X004641Y017377D02*
X004776Y017377D01*
X004776Y017535D02*
X004641Y017535D01*
X004641Y017694D02*
X004776Y017694D01*
X005282Y018011D02*
X007844Y018011D01*
X007844Y018169D02*
X005274Y018169D01*
X005320Y018328D02*
X007844Y018328D01*
X007844Y018486D02*
X005342Y018486D01*
X005342Y018645D02*
X007844Y018645D01*
X007844Y018803D02*
X005342Y018803D01*
X005342Y018962D02*
X007844Y018962D01*
X007844Y019120D02*
X005321Y019120D01*
X005339Y019279D02*
X007844Y019279D01*
X007844Y019437D02*
X005342Y019437D01*
X005342Y019596D02*
X007844Y019596D01*
X007844Y019754D02*
X005342Y019754D01*
X005342Y019913D02*
X007844Y019913D01*
X007844Y020071D02*
X005297Y020071D01*
X005158Y020230D02*
X007844Y020230D01*
X007844Y020388D02*
X005200Y020388D01*
X005200Y020547D02*
X007844Y020547D01*
X007844Y020705D02*
X005200Y020705D01*
X005200Y020864D02*
X007844Y020864D01*
X007844Y021022D02*
X005200Y021022D01*
X005178Y021181D02*
X007844Y021181D01*
X007844Y021339D02*
X005085Y021339D01*
X005085Y021498D02*
X007774Y021498D01*
X007721Y021656D02*
X005085Y021656D01*
X005085Y021815D02*
X007721Y021815D01*
X007783Y021973D02*
X005085Y021973D01*
X005085Y022132D02*
X007844Y022132D01*
X007844Y022290D02*
X005085Y022290D01*
X005085Y022449D02*
X007795Y022449D01*
X007729Y022607D02*
X005085Y022607D01*
X005085Y022766D02*
X007721Y022766D01*
X007762Y022924D02*
X005085Y022924D01*
X005085Y023083D02*
X007844Y023083D01*
X004205Y023083D02*
X000719Y023083D01*
X000719Y022924D02*
X004205Y022924D01*
X004205Y022766D02*
X000719Y022766D01*
X000719Y022607D02*
X004205Y022607D01*
X004205Y022449D02*
X000719Y022449D01*
X000719Y022290D02*
X004205Y022290D01*
X004205Y022132D02*
X000719Y022132D01*
X000719Y021973D02*
X004205Y021973D01*
X004205Y021815D02*
X000719Y021815D01*
X000719Y021656D02*
X004205Y021656D01*
X004205Y021498D02*
X000719Y021498D01*
X000719Y021339D02*
X004205Y021339D01*
X004112Y021181D02*
X004007Y021181D01*
X004001Y021190D02*
X003968Y021223D01*
X003927Y021247D01*
X003881Y021259D01*
X003620Y021259D01*
X003620Y020802D01*
X004037Y020802D01*
X004037Y021103D01*
X004025Y021149D01*
X004001Y021190D01*
X004037Y021022D02*
X004090Y021022D01*
X004090Y020864D02*
X004037Y020864D01*
X004090Y020705D02*
X003620Y020705D01*
X003620Y020648D02*
X003620Y020802D01*
X003465Y020802D01*
X003465Y020648D01*
X003047Y020648D01*
X003047Y020347D01*
X003060Y020301D01*
X003083Y020260D01*
X003117Y020227D01*
X003158Y020203D01*
X003204Y020191D01*
X003465Y020191D01*
X003465Y020648D01*
X003620Y020648D01*
X004037Y020648D01*
X004037Y020347D01*
X004025Y020301D01*
X004001Y020260D01*
X003968Y020227D01*
X003927Y020203D01*
X003881Y020191D01*
X003620Y020191D01*
X003620Y020648D01*
X003620Y020547D02*
X003465Y020547D01*
X003465Y020705D02*
X000719Y020705D01*
X000719Y020547D02*
X003047Y020547D01*
X003047Y020388D02*
X000719Y020388D01*
X000719Y020230D02*
X003114Y020230D01*
X003465Y020230D02*
X003620Y020230D01*
X003620Y020388D02*
X003465Y020388D01*
X003465Y020802D02*
X003047Y020802D01*
X003047Y021103D01*
X003060Y021149D01*
X003083Y021190D01*
X003117Y021223D01*
X003158Y021247D01*
X003204Y021259D01*
X003465Y021259D01*
X003465Y020802D01*
X003465Y020864D02*
X003620Y020864D01*
X003620Y021022D02*
X003465Y021022D01*
X003465Y021181D02*
X003620Y021181D01*
X003078Y021181D02*
X000719Y021181D01*
X000719Y021022D02*
X003047Y021022D01*
X003047Y020864D02*
X000719Y020864D01*
X000719Y020071D02*
X004121Y020071D01*
X004131Y020230D02*
X003971Y020230D01*
X004037Y020388D02*
X004090Y020388D01*
X004090Y020547D02*
X004037Y020547D01*
X004075Y019913D02*
X000719Y019913D01*
X000719Y019754D02*
X004075Y019754D01*
X004075Y019596D02*
X002831Y019596D01*
X002862Y019437D02*
X004075Y019437D01*
X004079Y019279D02*
X002862Y019279D01*
X002862Y019120D02*
X004097Y019120D01*
X004075Y018962D02*
X002862Y018962D01*
X002862Y018803D02*
X004075Y018803D01*
X004075Y018645D02*
X002862Y018645D01*
X002862Y018486D02*
X004075Y018486D01*
X004098Y018328D02*
X002862Y018328D01*
X002862Y018169D02*
X004143Y018169D01*
X004135Y018011D02*
X002862Y018011D01*
X002902Y017218D02*
X002723Y017218D01*
X003972Y016584D02*
X004025Y016584D01*
X004025Y016426D02*
X003972Y016426D01*
X003949Y016267D02*
X004057Y016267D01*
X004112Y016109D02*
X003918Y016109D01*
X003972Y015950D02*
X004025Y015950D01*
X004025Y015792D02*
X003972Y015792D01*
X004597Y015633D02*
X007844Y015633D01*
X007844Y015475D02*
X005015Y015475D01*
X005015Y015316D02*
X007844Y015316D01*
X007844Y015158D02*
X004992Y015158D01*
X005015Y015792D02*
X007844Y015792D01*
X007844Y015950D02*
X005015Y015950D01*
X004928Y016109D02*
X007844Y016109D01*
X007844Y016267D02*
X004983Y016267D01*
X005015Y016426D02*
X007844Y016426D01*
X007844Y016584D02*
X005015Y016584D01*
X001822Y014328D02*
X001594Y014100D01*
X001594Y012975D01*
X001594Y011975D02*
X001602Y011966D01*
X003030Y011966D01*
X003030Y011179D02*
X004797Y011179D01*
X004969Y011350D01*
X005469Y010600D02*
X005260Y010391D01*
X003030Y010391D01*
X003030Y009604D02*
X001972Y009604D01*
X001844Y009475D01*
X001844Y006100D01*
X002719Y005225D01*
X006219Y005225D01*
X006469Y004975D01*
X006469Y003725D01*
X007469Y003725D02*
X007469Y005225D01*
X007094Y005600D01*
X003344Y005600D01*
X003030Y005914D01*
X003030Y008817D01*
X009486Y008817D02*
X010560Y008817D01*
X010719Y008975D01*
X010719Y009226D01*
X010719Y009974D02*
X010719Y010225D01*
X010552Y010391D01*
X009486Y010391D01*
X013969Y010225D02*
X013969Y013100D01*
X014719Y013850D01*
X014719Y015100D01*
X015719Y015100D02*
X015719Y013600D01*
X014719Y012600D01*
X014719Y010225D01*
X026719Y010600D02*
X026719Y012975D01*
X026594Y013100D01*
X027094Y013600D01*
X032219Y013600D01*
X032219Y013100D02*
X027969Y013100D01*
X027469Y012600D01*
X027469Y010600D01*
X029969Y010561D02*
X032251Y010561D01*
X032259Y010566D02*
X032218Y010542D01*
X032185Y010509D01*
X032161Y010468D01*
X032149Y010422D01*
X032149Y009986D01*
X032889Y009986D01*
X032889Y010578D01*
X032305Y010578D01*
X032259Y010566D01*
X032149Y010403D02*
X029969Y010403D01*
X029969Y010244D02*
X032149Y010244D01*
X032149Y010086D02*
X029969Y010086D01*
X029969Y009927D02*
X032889Y009927D01*
X032889Y009986D02*
X032889Y009826D01*
X032149Y009826D01*
X032149Y009475D01*
X031594Y009475D01*
X031378Y009259D01*
X031378Y009336D01*
X030901Y009336D01*
X030901Y009452D01*
X030786Y009452D01*
X030786Y009850D01*
X030465Y009850D01*
X030420Y009838D01*
X030379Y009814D01*
X030345Y009780D01*
X030321Y009739D01*
X030309Y009694D01*
X030309Y009452D01*
X030786Y009452D01*
X030786Y009336D01*
X030309Y009336D01*
X030309Y009100D01*
X029969Y009100D01*
X029969Y010725D01*
X036969Y010725D01*
X036969Y009475D01*
X036628Y009475D01*
X036628Y009699D01*
X036171Y009699D01*
X036171Y009854D01*
X036016Y009854D01*
X036016Y010271D01*
X035715Y010271D01*
X035670Y010259D01*
X035629Y010235D01*
X035595Y010202D01*
X035594Y010199D01*
X035592Y010202D01*
X035558Y010235D01*
X035517Y010259D01*
X035472Y010271D01*
X035171Y010271D01*
X035171Y009854D01*
X035016Y009854D01*
X035016Y010271D01*
X034715Y010271D01*
X034670Y010259D01*
X034629Y010235D01*
X034595Y010202D01*
X034571Y010161D01*
X034559Y010115D01*
X034559Y009854D01*
X035016Y009854D01*
X035016Y009699D01*
X034559Y009699D01*
X034559Y009475D01*
X033788Y009475D01*
X033788Y009826D01*
X033049Y009826D01*
X033049Y009986D01*
X033788Y009986D01*
X033788Y010422D01*
X033776Y010468D01*
X033752Y010509D01*
X033719Y010542D01*
X033678Y010566D01*
X033632Y010578D01*
X033049Y010578D01*
X033049Y009986D01*
X032889Y009986D01*
X032889Y010086D02*
X033049Y010086D01*
X033049Y010244D02*
X032889Y010244D01*
X032889Y010403D02*
X033049Y010403D01*
X033049Y010561D02*
X032889Y010561D01*
X033686Y010561D02*
X036969Y010561D01*
X036844Y010600D02*
X036844Y013100D01*
X036542Y013401D01*
X035844Y013401D01*
X035792Y013350D01*
X035344Y013350D01*
X035094Y013600D01*
X034719Y013600D01*
X034719Y013100D02*
X034719Y012600D01*
X034719Y012100D01*
X035094Y012100D01*
X035344Y012350D01*
X035792Y012350D01*
X035844Y012299D01*
X035844Y011475D01*
X035719Y011350D01*
X035344Y011350D01*
X034719Y012100D02*
X032219Y012100D01*
X029969Y010720D02*
X036969Y010720D01*
X036969Y010403D02*
X033788Y010403D01*
X033788Y010244D02*
X034644Y010244D01*
X034559Y010086D02*
X033788Y010086D01*
X033788Y009769D02*
X035016Y009769D01*
X035171Y009769D02*
X036016Y009769D01*
X036016Y009699D02*
X036016Y009854D01*
X035628Y009854D01*
X035171Y009854D01*
X035171Y009699D01*
X036016Y009699D01*
X036171Y009769D02*
X036969Y009769D01*
X036969Y009927D02*
X036628Y009927D01*
X036628Y009854D02*
X036628Y010115D01*
X036616Y010161D01*
X036592Y010202D01*
X036558Y010235D01*
X036517Y010259D01*
X036472Y010271D01*
X036171Y010271D01*
X036171Y009854D01*
X036628Y009854D01*
X036628Y010086D02*
X036969Y010086D01*
X036969Y010244D02*
X036543Y010244D01*
X036171Y010244D02*
X036016Y010244D01*
X036016Y010086D02*
X036171Y010086D01*
X036171Y009927D02*
X036016Y009927D01*
X035644Y010244D02*
X035543Y010244D01*
X035171Y010244D02*
X035016Y010244D01*
X035016Y010086D02*
X035171Y010086D01*
X035171Y009927D02*
X035016Y009927D01*
X034559Y009927D02*
X033049Y009927D01*
X032149Y009769D02*
X031349Y009769D01*
X031342Y009780D02*
X031308Y009814D01*
X031267Y009838D01*
X031222Y009850D01*
X030901Y009850D01*
X030901Y009452D01*
X031378Y009452D01*
X031378Y009694D01*
X031366Y009739D01*
X031342Y009780D01*
X031378Y009610D02*
X032149Y009610D01*
X031570Y009452D02*
X030901Y009452D01*
X030844Y009394D02*
X030263Y009394D01*
X030219Y009350D01*
X030219Y003975D01*
X030469Y003725D01*
X030719Y003725D01*
X031468Y003725D02*
X032469Y003725D01*
X032469Y004099D01*
X032266Y004303D01*
X032266Y004601D01*
X032266Y004975D02*
X032719Y004975D01*
X032719Y004350D01*
X033218Y003851D01*
X033218Y003725D01*
X033969Y003746D02*
X034465Y003746D01*
X034465Y003802D02*
X034465Y003648D01*
X034047Y003648D01*
X034047Y003347D01*
X034060Y003301D01*
X034083Y003260D01*
X034117Y003227D01*
X034158Y003203D01*
X034204Y003191D01*
X034465Y003191D01*
X034465Y003648D01*
X034620Y003648D01*
X034620Y003191D01*
X034844Y003191D01*
X034844Y002725D01*
X033969Y002725D01*
X033969Y004475D01*
X033719Y004475D01*
X033719Y005225D01*
X034047Y005225D01*
X034047Y004927D01*
X034465Y004927D01*
X034465Y004773D01*
X034047Y004773D01*
X034047Y004472D01*
X034060Y004426D01*
X034083Y004385D01*
X034117Y004352D01*
X034158Y004328D01*
X034204Y004316D01*
X034465Y004316D01*
X034465Y004773D01*
X034620Y004773D01*
X034620Y004316D01*
X034844Y004316D01*
X034844Y004259D01*
X034620Y004259D01*
X034620Y003802D01*
X034465Y003802D01*
X034047Y003802D01*
X034047Y004103D01*
X034060Y004149D01*
X034083Y004190D01*
X034117Y004223D01*
X034158Y004247D01*
X034204Y004259D01*
X034465Y004259D01*
X034465Y003802D01*
X034465Y003904D02*
X034620Y003904D01*
X034620Y004063D02*
X034465Y004063D01*
X034465Y004221D02*
X034620Y004221D01*
X034620Y004380D02*
X034465Y004380D01*
X034465Y004538D02*
X034620Y004538D01*
X034620Y004697D02*
X034465Y004697D01*
X034465Y004855D02*
X033719Y004855D01*
X033719Y004697D02*
X034047Y004697D01*
X034047Y004538D02*
X033719Y004538D01*
X033969Y004380D02*
X034089Y004380D01*
X034114Y004221D02*
X033969Y004221D01*
X033969Y004063D02*
X034047Y004063D01*
X034047Y003904D02*
X033969Y003904D01*
X033969Y003587D02*
X034047Y003587D01*
X034047Y003429D02*
X033969Y003429D01*
X033969Y003270D02*
X034078Y003270D01*
X033969Y003112D02*
X034844Y003112D01*
X034844Y002953D02*
X033969Y002953D01*
X033969Y002795D02*
X034844Y002795D01*
X035219Y002795D02*
X036969Y002795D01*
X036969Y002725D02*
X035219Y002725D01*
X035219Y003227D01*
X035260Y003203D01*
X035306Y003191D01*
X035567Y003191D01*
X035567Y003648D01*
X035722Y003648D01*
X035722Y003802D01*
X036140Y003802D01*
X036140Y004103D01*
X036127Y004149D01*
X036104Y004190D01*
X036070Y004223D01*
X036029Y004247D01*
X035983Y004259D01*
X035722Y004259D01*
X035722Y003802D01*
X035567Y003802D01*
X035567Y004259D01*
X035306Y004259D01*
X035260Y004247D01*
X035219Y004223D01*
X035219Y004223D01*
X035219Y004352D01*
X035260Y004328D01*
X035306Y004316D01*
X035567Y004316D01*
X035567Y004773D01*
X035722Y004773D01*
X035722Y004927D01*
X036140Y004927D01*
X036140Y005228D01*
X036127Y005274D01*
X036104Y005315D01*
X036070Y005348D01*
X036029Y005372D01*
X035983Y005384D01*
X035722Y005384D01*
X035722Y004927D01*
X035567Y004927D01*
X035567Y005384D01*
X035306Y005384D01*
X035260Y005372D01*
X035219Y005348D01*
X035219Y005348D01*
X035219Y007225D01*
X034344Y007225D01*
X034344Y008850D01*
X034559Y008850D01*
X034559Y008751D01*
X035016Y008751D01*
X035016Y008596D01*
X035171Y008596D01*
X035171Y008179D01*
X035472Y008179D01*
X035517Y008191D01*
X035558Y008215D01*
X035592Y008248D01*
X035594Y008251D01*
X035595Y008248D01*
X035629Y008215D01*
X035670Y008191D01*
X035715Y008179D01*
X036016Y008179D01*
X036016Y008596D01*
X036171Y008596D01*
X036171Y008179D01*
X036472Y008179D01*
X036517Y008191D01*
X036558Y008215D01*
X036592Y008248D01*
X036616Y008289D01*
X036628Y008335D01*
X036628Y008596D01*
X036171Y008596D01*
X036171Y008751D01*
X036628Y008751D01*
X036628Y008850D01*
X036969Y008850D01*
X036969Y002725D01*
X036969Y002953D02*
X035219Y002953D01*
X035219Y003112D02*
X036969Y003112D01*
X036969Y003270D02*
X036109Y003270D01*
X036104Y003260D02*
X036127Y003301D01*
X036140Y003347D01*
X036140Y003648D01*
X035722Y003648D01*
X035722Y003191D01*
X035983Y003191D01*
X036029Y003203D01*
X036070Y003227D01*
X036104Y003260D01*
X036140Y003429D02*
X036969Y003429D01*
X036969Y003587D02*
X036140Y003587D01*
X035722Y003587D02*
X035567Y003587D01*
X035567Y003429D02*
X035722Y003429D01*
X035722Y003270D02*
X035567Y003270D01*
X035219Y003227D02*
X035219Y003227D01*
X034620Y003270D02*
X034465Y003270D01*
X034465Y003429D02*
X034620Y003429D01*
X034620Y003587D02*
X034465Y003587D01*
X035567Y003904D02*
X035722Y003904D01*
X035722Y003746D02*
X036969Y003746D01*
X036969Y003904D02*
X036140Y003904D01*
X036140Y004063D02*
X036969Y004063D01*
X036969Y004221D02*
X036073Y004221D01*
X036029Y004328D02*
X036070Y004352D01*
X036104Y004385D01*
X036127Y004426D01*
X036140Y004472D01*
X036140Y004773D01*
X035722Y004773D01*
X035722Y004316D01*
X035983Y004316D01*
X036029Y004328D01*
X036098Y004380D02*
X036969Y004380D01*
X036969Y004538D02*
X036140Y004538D01*
X036140Y004697D02*
X036969Y004697D01*
X036969Y004855D02*
X035722Y004855D01*
X035722Y004697D02*
X035567Y004697D01*
X035567Y004538D02*
X035722Y004538D01*
X035722Y004380D02*
X035567Y004380D01*
X035567Y004221D02*
X035722Y004221D01*
X035722Y004063D02*
X035567Y004063D01*
X035219Y004352D02*
X035219Y004352D01*
X034542Y004850D02*
X033969Y004850D01*
X033844Y004975D01*
X033171Y004975D01*
X033171Y004601D01*
X033719Y005014D02*
X034047Y005014D01*
X034047Y005172D02*
X033719Y005172D01*
X033470Y005600D02*
X033459Y005611D01*
X033418Y005635D01*
X033372Y005647D01*
X033171Y005647D01*
X032970Y005647D01*
X032925Y005635D01*
X032884Y005611D01*
X032872Y005600D01*
X032536Y005600D01*
X032509Y005627D01*
X032344Y005627D01*
X032344Y005711D01*
X032424Y005711D01*
X032517Y005804D01*
X032517Y006646D01*
X032424Y006739D01*
X032344Y006739D01*
X032344Y006872D01*
X032889Y006872D01*
X032889Y007464D01*
X033049Y007464D01*
X033049Y007600D01*
X033844Y007600D01*
X033844Y006725D01*
X033858Y006725D01*
X033822Y006704D01*
X033788Y006670D01*
X033764Y006629D01*
X033752Y006583D01*
X033752Y006305D01*
X034206Y006305D01*
X034206Y006145D01*
X033752Y006145D01*
X033752Y005867D01*
X033764Y005821D01*
X033788Y005780D01*
X033822Y005746D01*
X033863Y005723D01*
X033908Y005710D01*
X034206Y005710D01*
X034206Y006145D01*
X034366Y006145D01*
X034366Y005710D01*
X034664Y005710D01*
X034710Y005723D01*
X034719Y005727D01*
X034719Y005600D01*
X033470Y005600D01*
X033483Y005691D02*
X033529Y005703D01*
X033570Y005727D01*
X033604Y005760D01*
X033627Y005801D01*
X033640Y005847D01*
X033640Y006148D01*
X033222Y006148D01*
X033222Y006302D01*
X033640Y006302D01*
X033640Y006603D01*
X033627Y006649D01*
X033604Y006690D01*
X033570Y006723D01*
X033529Y006747D01*
X033483Y006759D01*
X033222Y006759D01*
X033222Y006302D01*
X033067Y006302D01*
X033067Y006148D01*
X032650Y006148D01*
X032650Y005847D01*
X032662Y005801D01*
X032686Y005760D01*
X032719Y005727D01*
X032760Y005703D01*
X032806Y005691D01*
X033067Y005691D01*
X033067Y006148D01*
X033222Y006148D01*
X033222Y005691D01*
X033483Y005691D01*
X033629Y005806D02*
X033773Y005806D01*
X033752Y005965D02*
X033640Y005965D01*
X033640Y006123D02*
X033752Y006123D01*
X033752Y006440D02*
X033640Y006440D01*
X033640Y006599D02*
X033756Y006599D01*
X033844Y006757D02*
X033492Y006757D01*
X033632Y006872D02*
X033678Y006884D01*
X033719Y006908D01*
X033752Y006941D01*
X033776Y006982D01*
X033788Y007028D01*
X033788Y007464D01*
X033049Y007464D01*
X033049Y006872D01*
X033632Y006872D01*
X033727Y006916D02*
X033844Y006916D01*
X033844Y007074D02*
X033788Y007074D01*
X033788Y007233D02*
X033844Y007233D01*
X033844Y007391D02*
X033788Y007391D01*
X033844Y007550D02*
X033049Y007550D01*
X033049Y007391D02*
X032889Y007391D01*
X032889Y007233D02*
X033049Y007233D01*
X033049Y007074D02*
X032889Y007074D01*
X032889Y006916D02*
X033049Y006916D01*
X033067Y006759D02*
X032806Y006759D01*
X032760Y006747D01*
X032719Y006723D01*
X032686Y006690D01*
X032662Y006649D01*
X032650Y006603D01*
X032650Y006302D01*
X033067Y006302D01*
X033067Y006759D01*
X033067Y006757D02*
X033222Y006757D01*
X033222Y006599D02*
X033067Y006599D01*
X033067Y006440D02*
X033222Y006440D01*
X033222Y006282D02*
X034206Y006282D01*
X034206Y006123D02*
X034366Y006123D01*
X034366Y005965D02*
X034206Y005965D01*
X034206Y005806D02*
X034366Y005806D01*
X034719Y005648D02*
X032344Y005648D01*
X032517Y005806D02*
X032661Y005806D01*
X032650Y005965D02*
X032517Y005965D01*
X032517Y006123D02*
X032650Y006123D01*
X032517Y006282D02*
X033067Y006282D01*
X033145Y006225D02*
X033171Y006198D01*
X033171Y005349D01*
X033171Y005600D02*
X033171Y005647D01*
X033171Y005600D01*
X033171Y005600D01*
X033222Y005806D02*
X033067Y005806D01*
X033067Y005965D02*
X033222Y005965D01*
X033222Y006123D02*
X033067Y006123D01*
X032650Y006440D02*
X032517Y006440D01*
X032517Y006599D02*
X032650Y006599D01*
X032797Y006757D02*
X032344Y006757D01*
X032042Y006225D02*
X030844Y006225D01*
X030844Y008056D01*
X030309Y009135D02*
X029969Y009135D01*
X030094Y009225D02*
X030219Y009350D01*
X030309Y009293D02*
X029969Y009293D01*
X029969Y009452D02*
X030786Y009452D01*
X030786Y009610D02*
X030901Y009610D01*
X030901Y009769D02*
X030786Y009769D01*
X030338Y009769D02*
X029969Y009769D01*
X029969Y009610D02*
X030309Y009610D01*
X031378Y009293D02*
X031412Y009293D01*
X033788Y009610D02*
X034559Y009610D01*
X034559Y008818D02*
X034344Y008818D01*
X034344Y008659D02*
X035016Y008659D01*
X035016Y008596D02*
X034559Y008596D01*
X034559Y008335D01*
X034571Y008289D01*
X034595Y008248D01*
X034629Y008215D01*
X034670Y008191D01*
X034715Y008179D01*
X035016Y008179D01*
X035016Y008596D01*
X035016Y008501D02*
X035171Y008501D01*
X035171Y008596D02*
X035171Y008751D01*
X035628Y008751D01*
X036016Y008751D01*
X036016Y008596D01*
X035171Y008596D01*
X035171Y008659D02*
X036016Y008659D01*
X036171Y008659D02*
X036969Y008659D01*
X036969Y008501D02*
X036628Y008501D01*
X036628Y008342D02*
X036969Y008342D01*
X036969Y008184D02*
X036489Y008184D01*
X036171Y008184D02*
X036016Y008184D01*
X036016Y008342D02*
X036171Y008342D01*
X036171Y008501D02*
X036016Y008501D01*
X035698Y008184D02*
X035489Y008184D01*
X035171Y008184D02*
X035016Y008184D01*
X035016Y008342D02*
X035171Y008342D01*
X034698Y008184D02*
X034344Y008184D01*
X034344Y008342D02*
X034559Y008342D01*
X034559Y008501D02*
X034344Y008501D01*
X034344Y008025D02*
X036969Y008025D01*
X036969Y007867D02*
X034344Y007867D01*
X034344Y007708D02*
X036969Y007708D01*
X036969Y007550D02*
X034344Y007550D01*
X034344Y007391D02*
X036969Y007391D01*
X036969Y007233D02*
X034344Y007233D01*
X035219Y007074D02*
X036969Y007074D01*
X036969Y006916D02*
X035219Y006916D01*
X035219Y006757D02*
X036969Y006757D01*
X036969Y006599D02*
X036431Y006599D01*
X036435Y006583D02*
X036423Y006629D01*
X036399Y006670D01*
X036365Y006704D01*
X036324Y006727D01*
X036279Y006740D01*
X035981Y006740D01*
X035981Y006305D01*
X036435Y006305D01*
X036435Y006583D01*
X036435Y006440D02*
X036969Y006440D01*
X036969Y006282D02*
X035981Y006282D01*
X035981Y006305D02*
X035981Y006145D01*
X036435Y006145D01*
X036435Y005867D01*
X036423Y005821D01*
X036399Y005780D01*
X036365Y005746D01*
X036324Y005723D01*
X036279Y005710D01*
X035981Y005710D01*
X035981Y006145D01*
X035821Y006145D01*
X035821Y005710D01*
X035523Y005710D01*
X035477Y005723D01*
X035436Y005746D01*
X035402Y005780D01*
X035379Y005821D01*
X035366Y005867D01*
X035366Y006145D01*
X035821Y006145D01*
X035821Y006305D01*
X035821Y006740D01*
X035523Y006740D01*
X035477Y006727D01*
X035436Y006704D01*
X035402Y006670D01*
X035379Y006629D01*
X035366Y006583D01*
X035366Y006305D01*
X035821Y006305D01*
X035981Y006305D01*
X035981Y006440D02*
X035821Y006440D01*
X035821Y006282D02*
X035219Y006282D01*
X035219Y006440D02*
X035366Y006440D01*
X035370Y006599D02*
X035219Y006599D01*
X035219Y006123D02*
X035366Y006123D01*
X035366Y005965D02*
X035219Y005965D01*
X035219Y005806D02*
X035387Y005806D01*
X035219Y005648D02*
X036969Y005648D01*
X036969Y005806D02*
X036414Y005806D01*
X036435Y005965D02*
X036969Y005965D01*
X036969Y006123D02*
X036435Y006123D01*
X035981Y006123D02*
X035821Y006123D01*
X035821Y005965D02*
X035981Y005965D01*
X035981Y005806D02*
X035821Y005806D01*
X035722Y005331D02*
X035567Y005331D01*
X035567Y005172D02*
X035722Y005172D01*
X035722Y005014D02*
X035567Y005014D01*
X036140Y005014D02*
X036969Y005014D01*
X036969Y005172D02*
X036140Y005172D01*
X036088Y005331D02*
X036969Y005331D01*
X036969Y005489D02*
X035219Y005489D01*
X035821Y006599D02*
X035981Y006599D01*
X032266Y005349D02*
X030969Y005349D01*
X030844Y005475D01*
X030844Y006225D01*
X036628Y008818D02*
X036969Y008818D01*
X036969Y009610D02*
X036628Y009610D01*
X036469Y016975D02*
X036155Y016975D01*
X036163Y016991D01*
X036187Y017063D01*
X036199Y017137D01*
X036199Y017455D01*
X035739Y017455D01*
X035739Y017495D01*
X036199Y017495D01*
X036199Y017813D01*
X036187Y017887D01*
X036163Y017959D01*
X036129Y018027D01*
X036085Y018088D01*
X036031Y018141D01*
X035970Y018186D01*
X035903Y018220D01*
X035831Y018243D01*
X035756Y018255D01*
X035739Y018255D01*
X035739Y017495D01*
X035699Y017495D01*
X035699Y018255D01*
X035681Y018255D01*
X035606Y018243D01*
X035534Y018220D01*
X035467Y018186D01*
X035406Y018141D01*
X035352Y018088D01*
X035308Y018027D01*
X035274Y017959D01*
X035253Y017896D01*
X035176Y018081D01*
X035024Y018233D01*
X034826Y018315D01*
X034611Y018315D01*
X034413Y018233D01*
X034393Y018213D01*
X034365Y018281D01*
X034275Y018371D01*
X034157Y018420D01*
X026280Y018420D01*
X026162Y018371D01*
X026072Y018281D01*
X026024Y018164D01*
X026024Y017036D01*
X026049Y016975D01*
X023969Y016975D01*
X023969Y019655D01*
X026104Y019655D01*
X026104Y019427D01*
X026140Y019339D01*
X026208Y019272D01*
X026296Y019235D01*
X026891Y019235D01*
X026979Y019272D01*
X026988Y019280D01*
X027199Y019280D01*
X027208Y019272D01*
X027296Y019235D01*
X027891Y019235D01*
X027979Y019272D01*
X027988Y019280D01*
X028782Y019280D01*
X028900Y019329D01*
X028990Y019419D01*
X029039Y019536D01*
X029039Y019540D01*
X029259Y019540D01*
X029682Y019540D01*
X029728Y019552D01*
X029769Y019576D01*
X029803Y019609D01*
X029826Y019651D01*
X029839Y019696D01*
X029839Y019850D01*
X029839Y020004D01*
X029826Y020049D01*
X029862Y020084D01*
X029899Y020172D01*
X029899Y020528D01*
X029869Y020600D01*
X029899Y020672D01*
X029899Y021028D01*
X029869Y021100D01*
X029899Y021172D01*
X029899Y021528D01*
X029869Y021600D01*
X029899Y021672D01*
X029899Y022028D01*
X029869Y022100D01*
X029899Y022172D01*
X029899Y022528D01*
X029869Y022600D01*
X029899Y022672D01*
X029899Y023028D01*
X029869Y023100D01*
X029899Y023172D01*
X029899Y023528D01*
X029862Y023616D01*
X029794Y023683D01*
X029706Y023720D01*
X029015Y023720D01*
X028990Y023781D01*
X028900Y023871D01*
X028782Y023920D01*
X027988Y023920D01*
X027979Y023928D01*
X027891Y023965D01*
X027296Y023965D01*
X027208Y023928D01*
X027199Y023920D01*
X026988Y023920D01*
X026979Y023928D01*
X026891Y023965D01*
X026296Y023965D01*
X026208Y023928D01*
X026140Y023861D01*
X026104Y023773D01*
X026104Y022677D01*
X026140Y022589D01*
X026208Y022522D01*
X026274Y022494D01*
X026274Y022331D01*
X026208Y022303D01*
X026140Y022236D01*
X026104Y022148D01*
X026104Y021052D01*
X026140Y020964D01*
X026208Y020897D01*
X026274Y020869D01*
X026274Y020706D01*
X026208Y020678D01*
X026140Y020611D01*
X026104Y020523D01*
X026104Y020295D01*
X024101Y020295D01*
X023969Y020428D01*
X023969Y024304D01*
X024141Y024304D01*
X024141Y024721D01*
X024296Y024721D01*
X024296Y024304D01*
X024597Y024304D01*
X024642Y024316D01*
X024683Y024340D01*
X024717Y024373D01*
X024741Y024414D01*
X024753Y024460D01*
X024753Y024721D01*
X024296Y024721D01*
X024296Y024876D01*
X024753Y024876D01*
X024753Y025137D01*
X024741Y025183D01*
X024717Y025224D01*
X024683Y025258D01*
X024642Y025282D01*
X024597Y025294D01*
X024296Y025294D01*
X024296Y024876D01*
X024141Y024876D01*
X024141Y025294D01*
X023969Y025294D01*
X023969Y025346D01*
X024621Y025346D01*
X024709Y025383D01*
X024776Y025450D01*
X024781Y025461D01*
X024781Y025461D01*
X024786Y025450D01*
X024853Y025383D01*
X024941Y025346D01*
X025746Y025346D01*
X025834Y025383D01*
X025901Y025450D01*
X025938Y025538D01*
X025938Y025850D01*
X026024Y025850D01*
X026024Y025036D01*
X026072Y024919D01*
X026162Y024829D01*
X026280Y024780D01*
X033899Y024780D01*
X033899Y023788D01*
X033473Y023788D01*
X033384Y023752D01*
X033317Y023684D01*
X033311Y023670D01*
X032228Y023670D01*
X032214Y023683D01*
X032126Y023720D01*
X031231Y023720D01*
X031143Y023683D01*
X031075Y023616D01*
X031039Y023528D01*
X031039Y023172D01*
X031068Y023100D01*
X031039Y023028D01*
X031039Y022672D01*
X031068Y022600D01*
X031039Y022528D01*
X031039Y022172D01*
X031068Y022100D01*
X031039Y022028D01*
X031039Y021672D01*
X031068Y021600D01*
X031039Y021528D01*
X031039Y021172D01*
X031075Y021084D01*
X031111Y021049D01*
X031099Y021004D01*
X031099Y020850D01*
X031099Y020696D01*
X031111Y020651D01*
X031075Y020616D01*
X031039Y020528D01*
X031039Y020172D01*
X031068Y020100D01*
X031039Y020028D01*
X031039Y019672D01*
X031075Y019584D01*
X031143Y019517D01*
X031231Y019480D01*
X032126Y019480D01*
X032214Y019517D01*
X032282Y019584D01*
X032319Y019672D01*
X032319Y020028D01*
X032318Y020030D01*
X032586Y020030D01*
X033030Y019586D01*
X033030Y019354D01*
X033067Y019266D01*
X033134Y019198D01*
X033223Y019162D01*
X033714Y019162D01*
X033803Y019198D01*
X033870Y019266D01*
X033907Y019354D01*
X033907Y019846D01*
X033870Y019934D01*
X033803Y020002D01*
X033714Y020038D01*
X033483Y020038D01*
X032900Y020621D01*
X032782Y020670D01*
X032251Y020670D01*
X032259Y020696D01*
X032259Y020850D01*
X032259Y021004D01*
X032246Y021049D01*
X032282Y021084D01*
X032319Y021172D01*
X032319Y021300D01*
X032321Y021289D01*
X032345Y021248D01*
X032379Y021215D01*
X032420Y021191D01*
X032465Y021179D01*
X032766Y021179D01*
X032766Y021596D01*
X032921Y021596D01*
X032921Y021179D01*
X033222Y021179D01*
X033267Y021191D01*
X033308Y021215D01*
X033342Y021248D01*
X033366Y021289D01*
X033378Y021335D01*
X033378Y021596D01*
X032921Y021596D01*
X032921Y021751D01*
X033378Y021751D01*
X033378Y022012D01*
X033366Y022058D01*
X033342Y022099D01*
X033308Y022133D01*
X033267Y022157D01*
X033222Y022169D01*
X032921Y022169D01*
X032921Y021751D01*
X032766Y021751D01*
X032766Y022169D01*
X032465Y022169D01*
X032420Y022157D01*
X032379Y022133D01*
X032345Y022099D01*
X032321Y022058D01*
X032315Y022035D01*
X032289Y022100D01*
X032319Y022172D01*
X032319Y022292D01*
X032353Y022258D01*
X032441Y022221D01*
X033246Y022221D01*
X033334Y022258D01*
X033401Y022325D01*
X033438Y022413D01*
X033438Y022926D01*
X033473Y022912D01*
X033964Y022912D01*
X034053Y022948D01*
X034120Y023016D01*
X034145Y023077D01*
X034150Y023079D01*
X034400Y023329D01*
X034490Y023419D01*
X034539Y023536D01*
X034539Y024915D01*
X034611Y024885D01*
X034826Y024885D01*
X035024Y024967D01*
X035176Y025119D01*
X035253Y025304D01*
X035274Y025241D01*
X035308Y025173D01*
X035352Y025112D01*
X035406Y025059D01*
X035467Y025014D01*
X035534Y024980D01*
X035606Y024957D01*
X035681Y024945D01*
X035699Y024945D01*
X035699Y025705D01*
X035739Y025705D01*
X035739Y025745D01*
X036199Y025745D01*
X036199Y025850D01*
X036469Y025850D01*
X036469Y016975D01*
X036469Y017060D02*
X036186Y017060D01*
X036199Y017218D02*
X036469Y017218D01*
X036469Y017377D02*
X036199Y017377D01*
X036199Y017535D02*
X036469Y017535D01*
X036469Y017694D02*
X036199Y017694D01*
X036192Y017852D02*
X036469Y017852D01*
X036469Y018011D02*
X036137Y018011D01*
X035993Y018169D02*
X036469Y018169D01*
X036469Y018328D02*
X034319Y018328D01*
X035088Y018169D02*
X035444Y018169D01*
X035300Y018011D02*
X035205Y018011D01*
X035699Y018011D02*
X035739Y018011D01*
X035739Y018169D02*
X035699Y018169D01*
X035699Y017852D02*
X035739Y017852D01*
X035739Y017694D02*
X035699Y017694D01*
X035699Y017535D02*
X035739Y017535D01*
X036469Y018486D02*
X023969Y018486D01*
X023969Y018328D02*
X026118Y018328D01*
X026026Y018169D02*
X023969Y018169D01*
X023969Y018011D02*
X026024Y018011D01*
X026024Y017852D02*
X023969Y017852D01*
X023969Y017694D02*
X026024Y017694D01*
X026024Y017535D02*
X023969Y017535D01*
X023969Y017377D02*
X026024Y017377D01*
X026024Y017218D02*
X023969Y017218D01*
X023969Y017060D02*
X026024Y017060D01*
X023969Y018645D02*
X036469Y018645D01*
X036469Y018803D02*
X023969Y018803D01*
X023969Y018962D02*
X036469Y018962D01*
X036469Y019120D02*
X023969Y019120D01*
X023969Y019279D02*
X026201Y019279D01*
X026104Y019437D02*
X023969Y019437D01*
X023969Y019596D02*
X026104Y019596D01*
X026594Y019975D02*
X023969Y019975D01*
X022969Y020975D01*
X016094Y020975D01*
X015719Y020600D01*
X015719Y019725D01*
X015469Y023600D02*
X014718Y023600D01*
X013969Y023600D02*
X013969Y024475D01*
X011969Y024475D01*
X011719Y024725D01*
X011719Y025725D01*
X014718Y025724D02*
X014718Y024475D01*
X015469Y023600D02*
X015719Y023850D01*
X015719Y025725D01*
X014719Y025725D02*
X014718Y025724D01*
X023219Y024600D02*
X023469Y024850D01*
X023469Y025725D01*
X023645Y025901D01*
X024219Y025901D01*
X024780Y025460D02*
X024782Y025460D01*
X024879Y025258D02*
X024845Y025224D01*
X024821Y025183D01*
X024809Y025137D01*
X024809Y024876D01*
X025266Y024876D01*
X025266Y024721D01*
X025421Y024721D01*
X025421Y024304D01*
X025722Y024304D01*
X025767Y024316D01*
X025808Y024340D01*
X025842Y024373D01*
X025866Y024414D01*
X025878Y024460D01*
X025878Y024721D01*
X025421Y024721D01*
X025421Y024876D01*
X025878Y024876D01*
X025878Y025137D01*
X025866Y025183D01*
X025842Y025224D01*
X025808Y025258D01*
X025767Y025282D01*
X025722Y025294D01*
X025421Y025294D01*
X025421Y024876D01*
X025266Y024876D01*
X025266Y025294D01*
X024965Y025294D01*
X024920Y025282D01*
X024879Y025258D01*
X024811Y025143D02*
X024751Y025143D01*
X024753Y024985D02*
X024809Y024985D01*
X024809Y024721D02*
X024809Y024460D01*
X024821Y024414D01*
X024845Y024373D01*
X024879Y024340D01*
X024920Y024316D01*
X024965Y024304D01*
X025266Y024304D01*
X025266Y024721D01*
X024809Y024721D01*
X024809Y024668D02*
X024753Y024668D01*
X024753Y024509D02*
X024809Y024509D01*
X024868Y024351D02*
X024694Y024351D01*
X024296Y024351D02*
X024141Y024351D01*
X024141Y024509D02*
X024296Y024509D01*
X024296Y024668D02*
X024141Y024668D01*
X024296Y024826D02*
X025266Y024826D01*
X025421Y024826D02*
X026169Y024826D01*
X026045Y024985D02*
X025878Y024985D01*
X025876Y025143D02*
X026024Y025143D01*
X026024Y025302D02*
X023969Y025302D01*
X024141Y025143D02*
X024296Y025143D01*
X024296Y024985D02*
X024141Y024985D01*
X025266Y024985D02*
X025421Y024985D01*
X025421Y025143D02*
X025266Y025143D01*
X025266Y024668D02*
X025421Y024668D01*
X025421Y024509D02*
X025266Y024509D01*
X025266Y024351D02*
X025421Y024351D01*
X025819Y024351D02*
X033899Y024351D01*
X033899Y024509D02*
X025878Y024509D01*
X025878Y024668D02*
X033899Y024668D01*
X034539Y024668D02*
X036469Y024668D01*
X036469Y024826D02*
X034539Y024826D01*
X034539Y024509D02*
X036469Y024509D01*
X036469Y024351D02*
X034539Y024351D01*
X034539Y024192D02*
X036469Y024192D01*
X036469Y024034D02*
X034539Y024034D01*
X034539Y023875D02*
X036469Y023875D01*
X036469Y023717D02*
X034539Y023717D01*
X034539Y023558D02*
X036469Y023558D01*
X036469Y023400D02*
X034471Y023400D01*
X034312Y023241D02*
X036469Y023241D01*
X036469Y023083D02*
X034154Y023083D01*
X033994Y022924D02*
X036469Y022924D01*
X036469Y022766D02*
X033438Y022766D01*
X033438Y022924D02*
X033443Y022924D01*
X033438Y022607D02*
X036469Y022607D01*
X036469Y022449D02*
X033438Y022449D01*
X033366Y022290D02*
X036469Y022290D01*
X036469Y022132D02*
X033310Y022132D01*
X033378Y021973D02*
X036469Y021973D01*
X036469Y021815D02*
X033378Y021815D01*
X033378Y021498D02*
X036469Y021498D01*
X036469Y021656D02*
X032921Y021656D01*
X032921Y021498D02*
X032766Y021498D01*
X032766Y021339D02*
X032921Y021339D01*
X032921Y021181D02*
X032766Y021181D01*
X032459Y021181D02*
X032319Y021181D01*
X032254Y021022D02*
X036469Y021022D01*
X036469Y020864D02*
X032259Y020864D01*
X032259Y020850D02*
X031679Y020850D01*
X031679Y020850D01*
X032259Y020850D01*
X032259Y020705D02*
X036469Y020705D01*
X036469Y020547D02*
X032975Y020547D01*
X033133Y020388D02*
X036469Y020388D01*
X036469Y020230D02*
X033292Y020230D01*
X033450Y020071D02*
X036469Y020071D01*
X036469Y019913D02*
X033879Y019913D01*
X033907Y019754D02*
X036469Y019754D01*
X036469Y019596D02*
X033907Y019596D01*
X033907Y019437D02*
X036469Y019437D01*
X036469Y019279D02*
X033875Y019279D01*
X033469Y019600D02*
X032719Y020350D01*
X031679Y020350D01*
X031678Y020850D02*
X031099Y020850D01*
X031678Y020850D01*
X031678Y020850D01*
X031099Y020864D02*
X029899Y020864D01*
X029899Y021022D02*
X031103Y021022D01*
X031039Y021181D02*
X029899Y021181D01*
X029899Y021339D02*
X031039Y021339D01*
X031039Y021498D02*
X029899Y021498D01*
X029892Y021656D02*
X031045Y021656D01*
X031039Y021815D02*
X029899Y021815D01*
X029899Y021973D02*
X031039Y021973D01*
X031055Y022132D02*
X029882Y022132D01*
X029899Y022290D02*
X031039Y022290D01*
X031039Y022449D02*
X029899Y022449D01*
X029871Y022607D02*
X031066Y022607D01*
X031039Y022766D02*
X029899Y022766D01*
X029899Y022924D02*
X031039Y022924D01*
X031061Y023083D02*
X029876Y023083D01*
X029899Y023241D02*
X031039Y023241D01*
X031039Y023400D02*
X029899Y023400D01*
X029886Y023558D02*
X031051Y023558D01*
X031222Y023717D02*
X029715Y023717D01*
X028891Y023875D02*
X033899Y023875D01*
X033899Y024034D02*
X023969Y024034D01*
X023969Y024192D02*
X033899Y024192D01*
X033349Y023717D02*
X032135Y023717D01*
X031679Y023350D02*
X032594Y023350D01*
X033719Y023350D01*
X033969Y023350D01*
X034219Y023600D01*
X034219Y026725D01*
X034094Y026850D01*
X035739Y025705D02*
X035739Y024945D01*
X035756Y024945D01*
X035831Y024957D01*
X035903Y024980D01*
X035970Y025014D01*
X036031Y025059D01*
X036085Y025112D01*
X036129Y025173D01*
X036163Y025241D01*
X036187Y025313D01*
X036199Y025387D01*
X036199Y025705D01*
X035739Y025705D01*
X035739Y025619D02*
X035699Y025619D01*
X035699Y025460D02*
X035739Y025460D01*
X035739Y025302D02*
X035699Y025302D01*
X035699Y025143D02*
X035739Y025143D01*
X035739Y024985D02*
X035699Y024985D01*
X035526Y024985D02*
X035042Y024985D01*
X035186Y025143D02*
X035330Y025143D01*
X035254Y025302D02*
X035252Y025302D01*
X035911Y024985D02*
X036469Y024985D01*
X036469Y025143D02*
X036107Y025143D01*
X036183Y025302D02*
X036469Y025302D01*
X036469Y025460D02*
X036199Y025460D01*
X036199Y025619D02*
X036469Y025619D01*
X036469Y025777D02*
X036199Y025777D01*
X032844Y023100D02*
X032594Y023350D01*
X032844Y023100D02*
X032844Y022776D01*
X032321Y022290D02*
X032319Y022290D01*
X032302Y022132D02*
X032377Y022132D01*
X032766Y022132D02*
X032921Y022132D01*
X032921Y021973D02*
X032766Y021973D01*
X032766Y021815D02*
X032921Y021815D01*
X033378Y021339D02*
X036469Y021339D01*
X036469Y021181D02*
X033228Y021181D01*
X031099Y020705D02*
X029899Y020705D01*
X029891Y020547D02*
X031046Y020547D01*
X031039Y020388D02*
X029899Y020388D01*
X029899Y020230D02*
X031039Y020230D01*
X031056Y020071D02*
X029849Y020071D01*
X029839Y019913D02*
X031039Y019913D01*
X031039Y019754D02*
X029839Y019754D01*
X029839Y019850D02*
X029259Y019850D01*
X029839Y019850D01*
X029789Y019596D02*
X031070Y019596D01*
X032287Y019596D02*
X033020Y019596D01*
X033030Y019437D02*
X028997Y019437D01*
X029259Y019540D02*
X029259Y019850D01*
X029259Y019850D01*
X029259Y019540D01*
X029259Y019596D02*
X029259Y019596D01*
X029259Y019754D02*
X029259Y019754D01*
X029259Y019850D02*
X029259Y019850D01*
X029259Y020350D02*
X028344Y020350D01*
X027969Y019975D01*
X027594Y019975D01*
X027986Y019279D02*
X033062Y019279D01*
X032862Y019754D02*
X032319Y019754D01*
X032319Y019913D02*
X032703Y019913D01*
X029259Y020850D02*
X028344Y020850D01*
X027594Y021600D01*
X028344Y021600D02*
X028344Y022975D01*
X028094Y023225D01*
X027594Y023225D01*
X026594Y023225D02*
X026594Y021600D01*
X026594Y019975D01*
X026104Y020388D02*
X024008Y020388D01*
X023969Y020547D02*
X026113Y020547D01*
X026272Y020705D02*
X023969Y020705D01*
X023969Y020864D02*
X026274Y020864D01*
X026116Y021022D02*
X023969Y021022D01*
X023969Y021181D02*
X026104Y021181D01*
X026104Y021339D02*
X023969Y021339D01*
X023969Y021498D02*
X026104Y021498D01*
X026104Y021656D02*
X023969Y021656D01*
X023969Y021815D02*
X026104Y021815D01*
X026104Y021973D02*
X023969Y021973D01*
X023969Y022132D02*
X026104Y022132D01*
X026194Y022290D02*
X023969Y022290D01*
X023969Y022449D02*
X026274Y022449D01*
X026133Y022607D02*
X023969Y022607D01*
X023969Y022766D02*
X026104Y022766D01*
X026104Y022924D02*
X023969Y022924D01*
X023969Y023083D02*
X026104Y023083D01*
X026104Y023241D02*
X023969Y023241D01*
X023969Y023400D02*
X026104Y023400D01*
X026104Y023558D02*
X023969Y023558D01*
X023969Y023717D02*
X026104Y023717D01*
X026154Y023875D02*
X023969Y023875D01*
X025905Y025460D02*
X026024Y025460D01*
X026024Y025619D02*
X025938Y025619D01*
X025938Y025777D02*
X026024Y025777D01*
X028344Y021600D02*
X028594Y021350D01*
X029259Y021350D01*
X027201Y019279D02*
X026986Y019279D01*
X001626Y019596D02*
X000719Y019596D01*
X000719Y019437D02*
X001595Y019437D01*
X001595Y019279D02*
X000719Y019279D01*
X000719Y019120D02*
X001595Y019120D01*
X001595Y018962D02*
X000719Y018962D01*
D33*
X001094Y019225D03*
X001094Y019850D03*
X001094Y020475D03*
X001094Y021100D03*
X001094Y021725D03*
X001094Y022350D03*
X001094Y022975D03*
X001719Y022975D03*
X002344Y022975D03*
X002969Y022975D03*
X003594Y022975D03*
X003844Y019600D03*
X003219Y019600D03*
X003219Y018725D03*
X003844Y018725D03*
X003844Y017850D03*
X003219Y017850D03*
X001094Y017975D03*
X001094Y017350D03*
X001094Y016725D03*
X001094Y016100D03*
X001094Y015475D03*
X001719Y015475D03*
X002344Y015475D03*
X001094Y018600D03*
X013969Y013100D03*
X014719Y012600D03*
X014719Y010225D03*
X013969Y010225D03*
X017219Y008100D03*
X014594Y005975D03*
X011344Y007600D03*
X005469Y010600D03*
X004969Y011350D03*
X021344Y006975D03*
X022219Y007850D03*
X026719Y010600D03*
X027469Y010600D03*
X027469Y012600D03*
X026594Y013100D03*
X035344Y011350D03*
X035469Y007850D03*
X036094Y007850D03*
X034844Y007850D03*
X036344Y005225D03*
X036344Y004600D03*
X036344Y003975D03*
X036344Y003350D03*
X029219Y007975D03*
X025594Y019100D03*
X030469Y022600D03*
X033719Y023350D03*
X033469Y019600D03*
X023219Y024600D03*
D34*
X032719Y004975D03*
D35*
X028344Y004870D02*
X023499Y004870D01*
X023499Y004632D02*
X028344Y004632D01*
X028344Y004393D02*
X023432Y004393D01*
X023380Y004267D02*
X023499Y004554D01*
X023499Y005864D01*
X023380Y006151D01*
X023160Y006371D01*
X022874Y006489D01*
X022563Y006489D01*
X022277Y006371D01*
X022057Y006151D01*
X021939Y005864D01*
X021939Y004554D01*
X022057Y004267D01*
X022100Y004225D01*
X022057Y004183D01*
X021939Y003896D01*
X021939Y003875D01*
X021853Y003875D01*
X021853Y003897D01*
X021810Y004000D01*
X021731Y004079D01*
X021629Y004121D01*
X020808Y004121D01*
X020706Y004079D01*
X020627Y004000D01*
X020622Y003988D01*
X020619Y003990D01*
X020619Y004055D01*
X020558Y004202D01*
X020494Y004266D01*
X020494Y004285D01*
X020504Y004309D01*
X020504Y005221D01*
X020461Y005324D01*
X020382Y005402D01*
X020279Y005445D01*
X019908Y005445D01*
X019844Y005418D01*
X019779Y005445D01*
X019408Y005445D01*
X019344Y005418D01*
X019279Y005445D01*
X018908Y005445D01*
X018844Y005418D01*
X018779Y005445D01*
X018408Y005445D01*
X018305Y005402D01*
X018244Y005341D01*
X018244Y006555D01*
X018183Y006702D01*
X017619Y007266D01*
X017619Y007708D01*
X017654Y007743D01*
X017697Y007846D01*
X017697Y008354D01*
X017654Y008457D01*
X017575Y008535D01*
X017472Y008578D01*
X016965Y008578D01*
X016862Y008535D01*
X016783Y008457D01*
X016740Y008354D01*
X016740Y007846D01*
X016783Y007743D01*
X016819Y007708D01*
X016819Y007020D01*
X016879Y006873D01*
X016992Y006761D01*
X017444Y006309D01*
X017444Y005020D01*
X017504Y004873D01*
X017617Y004761D01*
X017952Y004426D01*
X018099Y004365D01*
X018184Y004365D01*
X018184Y004309D01*
X018226Y004206D01*
X018305Y004128D01*
X018305Y004127D01*
X018242Y004064D01*
X018228Y004050D01*
X018158Y004050D01*
X018055Y004008D01*
X017976Y003929D01*
X017934Y003826D01*
X017934Y003124D01*
X017976Y003021D01*
X018055Y002942D01*
X018069Y002937D01*
X018038Y002905D01*
X018009Y002855D01*
X017994Y002799D01*
X017994Y002483D01*
X018462Y002483D01*
X018462Y002467D01*
X018477Y002467D01*
X018477Y001960D01*
X018754Y001960D01*
X018779Y001966D01*
X018803Y001942D01*
X018906Y001900D01*
X019529Y001900D01*
X019632Y001942D01*
X019711Y002021D01*
X019733Y002075D01*
X020173Y002075D01*
X020320Y002136D01*
X020374Y002190D01*
X020569Y002190D01*
X020644Y002221D01*
X020644Y002080D01*
X020659Y002024D01*
X020688Y001974D01*
X020729Y001933D01*
X020779Y001904D01*
X020835Y001889D01*
X021181Y001889D01*
X021181Y002386D01*
X021256Y002386D01*
X021256Y001889D01*
X021602Y001889D01*
X021658Y001904D01*
X021708Y001933D01*
X021749Y001974D01*
X021778Y002024D01*
X021793Y002080D01*
X021793Y002386D01*
X021256Y002386D01*
X021256Y002461D01*
X021793Y002461D01*
X021793Y002768D01*
X021778Y002824D01*
X021749Y002874D01*
X021708Y002915D01*
X021658Y002944D01*
X021731Y002974D01*
X021810Y003053D01*
X021819Y003075D01*
X021939Y003075D01*
X021939Y002586D01*
X022057Y002299D01*
X022277Y002079D01*
X022563Y001961D01*
X022874Y001961D01*
X023160Y002079D01*
X023380Y002299D01*
X023499Y002586D01*
X023499Y003896D01*
X023380Y004183D01*
X023337Y004225D01*
X023380Y004267D01*
X023391Y004155D02*
X028344Y004155D01*
X028344Y003916D02*
X023490Y003916D01*
X023499Y003678D02*
X028344Y003678D01*
X028344Y003439D02*
X023499Y003439D01*
X023499Y003201D02*
X028344Y003201D01*
X028344Y002962D02*
X023499Y002962D01*
X023499Y002724D02*
X028344Y002724D01*
X028344Y002485D02*
X023457Y002485D01*
X023327Y002247D02*
X028344Y002247D01*
X028344Y002008D02*
X022988Y002008D01*
X022449Y002008D02*
X021769Y002008D01*
X021793Y002247D02*
X022110Y002247D01*
X021980Y002485D02*
X021793Y002485D01*
X021793Y002724D02*
X021939Y002724D01*
X021939Y002962D02*
X021703Y002962D01*
X021219Y003475D02*
X022484Y003475D01*
X022719Y003241D01*
X021947Y003916D02*
X021845Y003916D01*
X022046Y004155D02*
X020577Y004155D01*
X020504Y004393D02*
X022005Y004393D01*
X021939Y004632D02*
X020504Y004632D01*
X020504Y004870D02*
X021939Y004870D01*
X021939Y005109D02*
X020504Y005109D01*
X020437Y005347D02*
X021939Y005347D01*
X021939Y005586D02*
X018244Y005586D01*
X018244Y005824D02*
X021939Y005824D01*
X022021Y006063D02*
X018244Y006063D01*
X018244Y006301D02*
X022207Y006301D01*
X021779Y006618D02*
X021822Y006721D01*
X021822Y007229D01*
X021779Y007332D01*
X021700Y007410D01*
X021597Y007453D01*
X021431Y007453D01*
X021360Y007524D01*
X021213Y007585D01*
X020504Y007585D01*
X020504Y007641D01*
X020500Y007650D01*
X021031Y007650D01*
X021094Y007676D01*
X021156Y007650D01*
X021740Y007650D01*
X021740Y007596D01*
X021783Y007493D01*
X021862Y007415D01*
X021965Y007372D01*
X022472Y007372D01*
X022575Y007415D01*
X022654Y007493D01*
X022697Y007596D01*
X022697Y008104D01*
X022654Y008207D01*
X022575Y008285D01*
X022575Y008286D01*
X022558Y008327D01*
X022445Y008439D01*
X022320Y008564D01*
X022173Y008625D01*
X021983Y008625D01*
X021961Y008679D01*
X021882Y008758D01*
X021779Y008800D01*
X021156Y008800D01*
X021094Y008774D01*
X021031Y008800D01*
X020408Y008800D01*
X020305Y008758D01*
X020226Y008679D01*
X020219Y008660D01*
X020211Y008679D01*
X020132Y008758D01*
X020118Y008763D01*
X020149Y008795D01*
X020178Y008845D01*
X020193Y008901D01*
X020193Y009217D01*
X019725Y009217D01*
X019725Y009233D01*
X019710Y009233D01*
X019710Y009740D01*
X019433Y009740D01*
X019408Y009734D01*
X019384Y009758D01*
X019281Y009800D01*
X018658Y009800D01*
X018555Y009758D01*
X018476Y009679D01*
X018434Y009576D01*
X018434Y008874D01*
X018476Y008771D01*
X018522Y008725D01*
X018476Y008679D01*
X018434Y008576D01*
X018434Y007874D01*
X018462Y007805D01*
X018435Y007805D01*
X018379Y007790D01*
X018328Y007761D01*
X018287Y007720D01*
X018259Y007670D01*
X018244Y007614D01*
X018244Y007185D01*
X018244Y006756D01*
X018259Y006700D01*
X018287Y006650D01*
X018328Y006609D01*
X018379Y006580D01*
X018435Y006565D01*
X018594Y006565D01*
X018752Y006565D01*
X018780Y006572D01*
X018805Y006548D01*
X018908Y006505D01*
X019279Y006505D01*
X019344Y006532D01*
X019408Y006505D01*
X019779Y006505D01*
X019844Y006532D01*
X019908Y006505D01*
X020279Y006505D01*
X020382Y006548D01*
X020461Y006626D01*
X020504Y006729D01*
X020504Y006785D01*
X020865Y006785D01*
X020865Y006721D01*
X020908Y006618D01*
X020987Y006540D01*
X020363Y006540D01*
X020504Y006778D02*
X020865Y006778D01*
X020987Y006540D02*
X021090Y006497D01*
X021597Y006497D01*
X021700Y006540D01*
X028344Y006540D01*
X028344Y006778D02*
X021822Y006778D01*
X021779Y006618D02*
X021700Y006540D01*
X021822Y007017D02*
X028344Y007017D01*
X028344Y007255D02*
X021811Y007255D01*
X021783Y007494D02*
X021391Y007494D01*
X021134Y007185D02*
X021344Y006975D01*
X021134Y007185D02*
X020094Y007185D01*
X019594Y007185D02*
X019594Y007725D01*
X019719Y007850D01*
X019719Y008224D01*
X019718Y008225D01*
X020719Y008225D01*
X021468Y008225D02*
X022094Y008225D01*
X022219Y008100D01*
X022219Y007850D01*
X022697Y007732D02*
X028344Y007732D01*
X028344Y007494D02*
X022654Y007494D01*
X022697Y007971D02*
X028344Y007971D01*
X028344Y008209D02*
X022652Y008209D01*
X022445Y008439D02*
X022445Y008439D01*
X022437Y008448D02*
X028344Y008448D01*
X028344Y008686D02*
X021954Y008686D01*
X020233Y008686D02*
X020204Y008686D01*
X020193Y008925D02*
X028344Y008925D01*
X028344Y009163D02*
X020193Y009163D01*
X020193Y009233D02*
X019725Y009233D01*
X019725Y009740D01*
X020002Y009740D01*
X020058Y009725D01*
X020109Y009696D01*
X020149Y009655D01*
X020178Y009605D01*
X020193Y009549D01*
X020193Y009233D01*
X020193Y009402D02*
X028344Y009402D01*
X028344Y009640D02*
X020158Y009640D01*
X020187Y010005D02*
X020716Y010005D01*
X020716Y010707D01*
X019548Y010707D01*
X018346Y010707D01*
X018346Y010743D01*
X020716Y010743D01*
X020716Y010707D01*
X020752Y010707D01*
X020752Y010005D01*
X021281Y010005D01*
X021375Y010017D01*
X021466Y010042D01*
X021553Y010078D01*
X021635Y010125D01*
X021710Y010183D01*
X021719Y010191D01*
X021727Y010183D01*
X021802Y010125D01*
X021884Y010078D01*
X021971Y010042D01*
X022062Y010017D01*
X022156Y010005D01*
X022685Y010005D01*
X022685Y010707D01*
X022721Y010707D01*
X022721Y010743D01*
X023923Y010743D01*
X023923Y010772D01*
X023910Y010866D01*
X023886Y010957D01*
X023850Y011044D01*
X023803Y011126D01*
X023745Y011201D01*
X023679Y011267D01*
X023604Y011325D01*
X023522Y011372D01*
X023435Y011408D01*
X023344Y011433D01*
X023250Y011445D01*
X022721Y011445D01*
X022721Y010743D01*
X022685Y010743D01*
X022685Y011445D01*
X022156Y011445D01*
X022062Y011433D01*
X021971Y011408D01*
X021884Y011372D01*
X021802Y011325D01*
X021727Y011267D01*
X021719Y011259D01*
X021710Y011267D01*
X021635Y011325D01*
X021553Y011372D01*
X021466Y011408D01*
X021375Y011433D01*
X021281Y011445D01*
X020752Y011445D01*
X020752Y010743D01*
X020716Y010743D01*
X020716Y011445D01*
X020187Y011445D01*
X020093Y011433D01*
X020002Y011408D01*
X019915Y011372D01*
X019833Y011325D01*
X019759Y011267D01*
X019692Y011201D01*
X019634Y011126D01*
X019587Y011044D01*
X019551Y010957D01*
X019531Y010882D01*
X019511Y010957D01*
X019475Y011044D01*
X019428Y011126D01*
X019370Y011201D01*
X019304Y011267D01*
X019229Y011325D01*
X019147Y011372D01*
X019060Y011408D01*
X018969Y011433D01*
X018875Y011445D01*
X018346Y011445D01*
X018346Y010743D01*
X018310Y010743D01*
X018310Y011445D01*
X017781Y011445D01*
X017687Y011433D01*
X017596Y011408D01*
X017509Y011372D01*
X017427Y011325D01*
X017352Y011267D01*
X017344Y011259D01*
X017335Y011267D01*
X017260Y011325D01*
X017178Y011372D01*
X017091Y011408D01*
X017000Y011433D01*
X016906Y011445D01*
X016377Y011445D01*
X016377Y010743D01*
X016341Y010743D01*
X016341Y010707D01*
X015139Y010707D01*
X015139Y010678D01*
X015152Y010584D01*
X015079Y010657D01*
X015079Y012100D01*
X026359Y012100D01*
X026359Y011032D01*
X026283Y010957D01*
X026240Y010854D01*
X026240Y010346D01*
X026283Y010243D01*
X026362Y010165D01*
X026465Y010122D01*
X026972Y010122D01*
X027075Y010165D01*
X027094Y010183D01*
X027112Y010165D01*
X027215Y010122D01*
X027722Y010122D01*
X027825Y010165D01*
X027904Y010243D01*
X027947Y010346D01*
X027947Y010854D01*
X027904Y010957D01*
X027829Y011032D01*
X027829Y012100D01*
X028344Y012100D01*
X028344Y001725D01*
X015124Y001725D01*
X015124Y006080D01*
X015072Y006206D01*
X015072Y006229D01*
X015029Y006332D01*
X014950Y006410D01*
X014847Y006453D01*
X014824Y006453D01*
X014699Y006505D01*
X014488Y006505D01*
X014363Y006453D01*
X014340Y006453D01*
X014237Y006410D01*
X014158Y006332D01*
X014115Y006229D01*
X014115Y006206D01*
X014064Y006080D01*
X014064Y001725D01*
X010594Y001725D01*
X010594Y008457D01*
X010632Y008457D01*
X010764Y008511D01*
X010922Y008670D01*
X010943Y008690D01*
X011069Y008690D01*
X011172Y008733D01*
X011251Y008811D01*
X011294Y008914D01*
X011294Y009538D01*
X011268Y009600D01*
X011294Y009662D01*
X011294Y010286D01*
X011251Y010389D01*
X011172Y010467D01*
X011069Y010510D01*
X010943Y010510D01*
X010922Y010530D01*
X010756Y010697D01*
X010624Y010751D01*
X010594Y010751D01*
X010594Y012100D01*
X013609Y012100D01*
X013609Y010657D01*
X013533Y010582D01*
X013490Y010479D01*
X013490Y009971D01*
X013533Y009868D01*
X013612Y009790D01*
X013715Y009747D01*
X014222Y009747D01*
X014325Y009790D01*
X014344Y009808D01*
X014362Y009790D01*
X014465Y009747D01*
X014972Y009747D01*
X015075Y009790D01*
X015154Y009868D01*
X015197Y009971D01*
X015197Y010443D01*
X015212Y010406D01*
X015259Y010324D01*
X015317Y010249D01*
X015384Y010183D01*
X015458Y010125D01*
X015540Y010078D01*
X015627Y010042D01*
X015718Y010017D01*
X015812Y010005D01*
X016341Y010005D01*
X016341Y010707D01*
X016377Y010707D01*
X016377Y010005D01*
X016906Y010005D01*
X017000Y010017D01*
X017091Y010042D01*
X017178Y010078D01*
X017260Y010125D01*
X017335Y010183D01*
X017344Y010191D01*
X017352Y010183D01*
X017427Y010125D01*
X017509Y010078D01*
X017596Y010042D01*
X017687Y010017D01*
X017781Y010005D01*
X018310Y010005D01*
X018310Y010707D01*
X018346Y010707D01*
X018346Y010005D01*
X018875Y010005D01*
X018969Y010017D01*
X019060Y010042D01*
X019147Y010078D01*
X019229Y010125D01*
X019304Y010183D01*
X019370Y010249D01*
X019428Y010324D01*
X019475Y010406D01*
X019511Y010493D01*
X019531Y010568D01*
X019551Y010493D01*
X019587Y010406D01*
X019634Y010324D01*
X019692Y010249D01*
X019759Y010183D01*
X019833Y010125D01*
X019915Y010078D01*
X020002Y010042D01*
X020093Y010017D01*
X020187Y010005D01*
X019847Y010117D02*
X019215Y010117D01*
X019446Y010356D02*
X019616Y010356D01*
X019603Y011071D02*
X019459Y011071D01*
X019249Y011310D02*
X019813Y011310D01*
X020716Y011310D02*
X020752Y011310D01*
X020752Y011071D02*
X020716Y011071D01*
X020716Y010833D02*
X020752Y010833D01*
X020752Y010743D02*
X021954Y010743D01*
X022685Y010743D01*
X022685Y010707D01*
X020752Y010707D01*
X020752Y010743D01*
X020752Y010594D02*
X020716Y010594D01*
X020716Y010356D02*
X020752Y010356D01*
X020752Y010117D02*
X020716Y010117D01*
X021621Y010117D02*
X021816Y010117D01*
X022685Y010117D02*
X022721Y010117D01*
X022721Y010005D02*
X023250Y010005D01*
X023344Y010017D01*
X023435Y010042D01*
X023522Y010078D01*
X023604Y010125D01*
X023679Y010183D01*
X023745Y010249D01*
X023803Y010324D01*
X023850Y010406D01*
X023886Y010493D01*
X023910Y010584D01*
X023923Y010678D01*
X023923Y010707D01*
X022721Y010707D01*
X022721Y010005D01*
X023590Y010117D02*
X028344Y010117D01*
X028344Y009879D02*
X015158Y009879D01*
X015197Y010117D02*
X015472Y010117D01*
X015241Y010356D02*
X015197Y010356D01*
X015152Y010584D02*
X015152Y010584D01*
X015150Y010594D02*
X015142Y010594D01*
X015139Y010743D02*
X016341Y010743D01*
X016341Y011445D01*
X015812Y011445D01*
X015718Y011433D01*
X015627Y011408D01*
X015540Y011372D01*
X015458Y011325D01*
X015384Y011267D01*
X015317Y011201D01*
X015259Y011126D01*
X015212Y011044D01*
X015176Y010957D01*
X015152Y010866D01*
X015139Y010772D01*
X015139Y010743D01*
X015147Y010833D02*
X015079Y010833D01*
X015079Y011071D02*
X015228Y011071D01*
X015079Y011310D02*
X015438Y011310D01*
X015079Y011548D02*
X026359Y011548D01*
X026359Y011310D02*
X023624Y011310D01*
X023834Y011071D02*
X026359Y011071D01*
X026240Y010833D02*
X023915Y010833D01*
X023912Y010594D02*
X026240Y010594D01*
X026240Y010356D02*
X023821Y010356D01*
X022721Y010356D02*
X022685Y010356D01*
X022685Y010594D02*
X022721Y010594D01*
X022721Y010833D02*
X022685Y010833D01*
X022685Y011071D02*
X022721Y011071D01*
X022721Y011310D02*
X022685Y011310D01*
X021782Y011310D02*
X021655Y011310D01*
X019725Y009640D02*
X019710Y009640D01*
X019710Y009402D02*
X019725Y009402D01*
X018969Y009225D02*
X018969Y008225D01*
X018969Y008224D01*
X018969Y007850D01*
X019094Y007725D01*
X019094Y007185D01*
X018684Y007185D02*
X018594Y007185D01*
X018594Y007185D01*
X018684Y007185D01*
X018684Y007185D01*
X018594Y007185D02*
X018594Y006565D01*
X018594Y007185D01*
X018594Y007185D01*
X018594Y007676D01*
X018594Y007676D01*
X018594Y007185D01*
X018594Y007185D01*
X018593Y007185D02*
X018244Y007185D01*
X018593Y007185D01*
X018593Y007185D01*
X018594Y007255D02*
X018594Y007255D01*
X018594Y007017D02*
X018594Y007017D01*
X018594Y006778D02*
X018594Y006778D01*
X018825Y006540D02*
X018244Y006540D01*
X018244Y006778D02*
X018106Y006778D01*
X018244Y007017D02*
X017868Y007017D01*
X017629Y007255D02*
X018244Y007255D01*
X018244Y007494D02*
X017619Y007494D01*
X017643Y007732D02*
X018299Y007732D01*
X018434Y007971D02*
X017697Y007971D01*
X017697Y008209D02*
X018434Y008209D01*
X018434Y008448D02*
X017658Y008448D01*
X017219Y008100D02*
X017219Y007100D01*
X017844Y006475D01*
X017844Y005100D01*
X018179Y004765D01*
X018594Y004765D01*
X019094Y004765D02*
X019094Y004350D01*
X018469Y003725D01*
X018469Y003476D01*
X018469Y003475D01*
X018469Y003349D01*
X019218Y002601D01*
X019218Y002475D01*
X020094Y002475D01*
X020219Y002600D01*
X020219Y002726D01*
X020668Y002008D02*
X019698Y002008D01*
X018477Y002008D02*
X018462Y002008D01*
X018462Y001960D02*
X018462Y002467D01*
X017994Y002467D01*
X017994Y002151D01*
X018009Y002095D01*
X018038Y002045D01*
X018079Y002004D01*
X018129Y001975D01*
X018185Y001960D01*
X018462Y001960D01*
X018462Y002247D02*
X018477Y002247D01*
X018074Y002008D02*
X015124Y002008D01*
X015124Y001770D02*
X028344Y001770D01*
X028344Y005109D02*
X023499Y005109D01*
X023499Y005347D02*
X028344Y005347D01*
X028344Y005586D02*
X023499Y005586D01*
X023499Y005824D02*
X028344Y005824D01*
X028344Y006063D02*
X023416Y006063D01*
X023230Y006301D02*
X028344Y006301D01*
X021219Y003526D02*
X021166Y003474D01*
X020219Y003474D01*
X020219Y003975D01*
X020094Y004100D01*
X020094Y004765D01*
X019594Y004765D02*
X019594Y003851D01*
X019218Y003475D01*
X018278Y004155D02*
X015124Y004155D01*
X015124Y004393D02*
X018031Y004393D01*
X017746Y004632D02*
X015124Y004632D01*
X015124Y004870D02*
X017508Y004870D01*
X017444Y005109D02*
X015124Y005109D01*
X015124Y005347D02*
X017444Y005347D01*
X017444Y005586D02*
X015124Y005586D01*
X015124Y005824D02*
X017444Y005824D01*
X017444Y006063D02*
X015124Y006063D01*
X015042Y006301D02*
X017444Y006301D01*
X017213Y006540D02*
X010594Y006540D01*
X010594Y006778D02*
X016975Y006778D01*
X016820Y007017D02*
X010594Y007017D01*
X010594Y007255D02*
X016819Y007255D01*
X016819Y007494D02*
X010594Y007494D01*
X010594Y007732D02*
X016794Y007732D01*
X016740Y007971D02*
X010594Y007971D01*
X010594Y008209D02*
X016740Y008209D01*
X016779Y008448D02*
X010594Y008448D01*
X010939Y008686D02*
X018483Y008686D01*
X018434Y008925D02*
X011294Y008925D01*
X011294Y009163D02*
X018434Y009163D01*
X018434Y009402D02*
X011294Y009402D01*
X011285Y009640D02*
X018460Y009640D01*
X018346Y010117D02*
X018310Y010117D01*
X018310Y010356D02*
X018346Y010356D01*
X018346Y010594D02*
X018310Y010594D01*
X018310Y010707D02*
X016377Y010707D01*
X016377Y010743D01*
X017579Y010743D01*
X018310Y010743D01*
X018310Y010707D01*
X018328Y010725D02*
X018344Y010741D01*
X018344Y014600D01*
X017844Y015100D01*
X016719Y015100D01*
X013719Y015100D02*
X011594Y015100D01*
X011219Y015475D01*
X011219Y025225D01*
X011719Y025725D01*
X009969Y016100D02*
X010594Y015475D01*
X010594Y013225D01*
X010122Y012754D01*
X009486Y012754D01*
X010594Y012025D02*
X013609Y012025D01*
X013609Y011787D02*
X010594Y011787D01*
X010594Y011548D02*
X013609Y011548D01*
X013609Y011310D02*
X010594Y011310D01*
X010594Y011071D02*
X013609Y011071D01*
X013609Y010833D02*
X010594Y010833D01*
X010859Y010594D02*
X013545Y010594D01*
X013490Y010356D02*
X011265Y010356D01*
X011294Y010117D02*
X013490Y010117D01*
X013529Y009879D02*
X011294Y009879D01*
X009486Y010391D02*
X008302Y010391D01*
X008094Y010600D01*
X008094Y012600D01*
X007906Y012788D01*
X008094Y012975D01*
X008094Y014100D01*
X008322Y014328D01*
X009486Y014328D01*
X008969Y016100D02*
X007469Y016100D01*
X007906Y012788D02*
X007872Y012754D01*
X003030Y012754D01*
X011277Y006371D02*
X011563Y006489D01*
X011874Y006489D01*
X012160Y006371D01*
X012380Y006151D01*
X012499Y005864D01*
X012499Y004554D01*
X012380Y004267D01*
X012337Y004225D01*
X012380Y004183D01*
X012499Y003896D01*
X012499Y002586D01*
X012380Y002299D01*
X012160Y002079D01*
X011874Y001961D01*
X011563Y001961D01*
X011277Y002079D01*
X011057Y002299D01*
X010939Y002586D01*
X010939Y003896D01*
X011057Y004183D01*
X011100Y004225D01*
X011057Y004267D01*
X010939Y004554D01*
X010939Y005864D01*
X011057Y006151D01*
X011277Y006371D01*
X011207Y006301D02*
X010594Y006301D01*
X010594Y006063D02*
X011021Y006063D01*
X010939Y005824D02*
X010594Y005824D01*
X010594Y005586D02*
X010939Y005586D01*
X010939Y005347D02*
X010594Y005347D01*
X010594Y005109D02*
X010939Y005109D01*
X010939Y004870D02*
X010594Y004870D01*
X010594Y004632D02*
X010939Y004632D01*
X011005Y004393D02*
X010594Y004393D01*
X010594Y004155D02*
X011046Y004155D01*
X010947Y003916D02*
X010594Y003916D01*
X010594Y003678D02*
X010939Y003678D01*
X010939Y003439D02*
X010594Y003439D01*
X010594Y003201D02*
X010939Y003201D01*
X010939Y002962D02*
X010594Y002962D01*
X010594Y002724D02*
X010939Y002724D01*
X010980Y002485D02*
X010594Y002485D01*
X010594Y002247D02*
X011110Y002247D01*
X011449Y002008D02*
X010594Y002008D01*
X010594Y001770D02*
X014064Y001770D01*
X014064Y002008D02*
X011988Y002008D01*
X012327Y002247D02*
X014064Y002247D01*
X014064Y002485D02*
X012457Y002485D01*
X012499Y002724D02*
X014064Y002724D01*
X014064Y002962D02*
X012499Y002962D01*
X012499Y003201D02*
X014064Y003201D01*
X014064Y003439D02*
X012499Y003439D01*
X012499Y003678D02*
X014064Y003678D01*
X014064Y003916D02*
X012490Y003916D01*
X012391Y004155D02*
X014064Y004155D01*
X014064Y004393D02*
X012432Y004393D01*
X012499Y004632D02*
X014064Y004632D01*
X014064Y004870D02*
X012499Y004870D01*
X012499Y005109D02*
X014064Y005109D01*
X014064Y005347D02*
X012499Y005347D01*
X012499Y005586D02*
X014064Y005586D01*
X014064Y005824D02*
X012499Y005824D01*
X012416Y006063D02*
X014064Y006063D01*
X014145Y006301D02*
X012230Y006301D01*
X015124Y003916D02*
X017971Y003916D01*
X017934Y003678D02*
X015124Y003678D01*
X015124Y003439D02*
X017934Y003439D01*
X017934Y003201D02*
X015124Y003201D01*
X015124Y002962D02*
X018035Y002962D01*
X017994Y002724D02*
X015124Y002724D01*
X015124Y002485D02*
X017994Y002485D01*
X017994Y002247D02*
X015124Y002247D01*
X018244Y005347D02*
X018250Y005347D01*
X018594Y007494D02*
X018594Y007494D01*
X017441Y010117D02*
X017246Y010117D01*
X016377Y010117D02*
X016341Y010117D01*
X016341Y010356D02*
X016377Y010356D01*
X016377Y010594D02*
X016341Y010594D01*
X016341Y010833D02*
X016377Y010833D01*
X016377Y011071D02*
X016341Y011071D01*
X016341Y011310D02*
X016377Y011310D01*
X017280Y011310D02*
X017407Y011310D01*
X018310Y011310D02*
X018346Y011310D01*
X018346Y011071D02*
X018310Y011071D01*
X018310Y010833D02*
X018346Y010833D01*
X015079Y011787D02*
X026359Y011787D01*
X026359Y012025D02*
X015079Y012025D01*
X027829Y012025D02*
X028344Y012025D01*
X028344Y011787D02*
X027829Y011787D01*
X027829Y011548D02*
X028344Y011548D01*
X028344Y011310D02*
X027829Y011310D01*
X027829Y011071D02*
X028344Y011071D01*
X028344Y010833D02*
X027947Y010833D01*
X027947Y010594D02*
X028344Y010594D01*
X028344Y010356D02*
X027947Y010356D01*
X021256Y002247D02*
X021181Y002247D01*
X021181Y002008D02*
X021256Y002008D01*
D36*
X003030Y014328D02*
X001822Y014328D01*
X001719Y014432D01*
X001719Y015475D01*
D37*
X034469Y002850D02*
X034469Y001725D01*
X034544Y001650D01*
X041719Y001650D01*
D38*
X040844Y010350D02*
X036719Y010350D01*
X040844Y010350D02*
X041219Y010725D01*
X041219Y026600D01*
X040969Y026850D01*
X034094Y026850D01*
X024219Y026850D01*
X024219Y025901D01*
X025344Y025901D01*
X024219Y026850D02*
X011969Y026850D01*
X011906Y026788D01*
X011844Y026850D01*
X007969Y026850D01*
X004645Y023526D01*
X004645Y020725D01*
X004709Y020661D01*
X004709Y019631D01*
X002228Y018725D02*
X002228Y017090D01*
X002594Y016725D01*
X003417Y016725D01*
X003417Y015600D01*
X003469Y015549D01*
X003469Y015225D01*
X003969Y014725D01*
X003969Y012850D01*
X003872Y012754D01*
X003030Y012754D01*
X011719Y025725D02*
X011719Y026600D01*
X011906Y026788D01*
D39*
X029219Y009975D02*
X029594Y010350D01*
X030219Y010350D01*
X029219Y009975D02*
X029219Y007975D01*
X029219Y001600D01*
X028719Y001100D01*
X014969Y001100D01*
X008844Y001100D01*
X008469Y001475D01*
X008469Y003725D01*
X014594Y001475D02*
X014969Y001100D01*
X014594Y001475D02*
X014594Y005975D01*
M02*
